<svg xmlns="http://www.w3.org/2000/svg" xmlns:xlink="http://www.w3.org/1999/xlink" viewBox="0 0 125 202" width="125" height="202" preserveAspectRatio="xMidYMid meet" style="width: 100%; height: 100%; transform: translate3d(0px, 0px, 0px); content-visibility: visible;"><defs><clipPath id="__lottie_element_1031"><rect width="125" height="202" x="0" y="0"></rect></clipPath></defs><g clip-path="url(#__lottie_element_1031)"><g transform="matrix(1,0,0,1,99.5,187.5)" opacity="1" style="display: block;"><g opacity="1" transform="matrix(1,0,0,1,0,0)"><path fill="rgb(206,175,244)" fill-opacity="1" d=" M1.1109999418258667,-5.638999938964844 C0.8149999976158142,-6.7870001792907715 -0.8149999976158142,-6.7870001792907715 -1.1109999418258667,-5.638999938964844 C-1.1109999418258667,-5.638999938964844 -1.871000051498413,-2.694999933242798 -1.871000051498413,-2.694999933242798 C-1.975000023841858,-2.2909998893737793 -2.2909998893737793,-1.975000023841858 -2.694999933242798,-1.871000051498413 C-2.694999933242798,-1.871000051498413 -5.638999938964844,-1.1109999418258667 -5.638999938964844,-1.1109999418258667 C-6.7870001792907715,-0.8149999976158142 -6.7870001792907715,0.8149999976158142 -5.638999938964844,1.1109999418258667 C-5.638999938964844,1.1109999418258667 -2.694999933242798,1.871000051498413 -2.694999933242798,1.871000051498413 C-2.2909998893737793,1.975000023841858 -1.975000023841858,2.2909998893737793 -1.871000051498413,2.694999933242798 C-1.871000051498413,2.694999933242798 -1.1109999418258667,5.638999938964844 -1.1109999418258667,5.638999938964844 C-0.8149999976158142,6.7870001792907715 0.8149999976158142,6.7870001792907715 1.1109999418258667,5.638999938964844 C1.1109999418258667,5.638999938964844 1.871000051498413,2.694999933242798 1.871000051498413,2.694999933242798 C1.975000023841858,2.2909998893737793 2.2909998893737793,1.975000023841858 2.694999933242798,1.871000051498413 C2.694999933242798,1.871000051498413 5.638999938964844,1.1109999418258667 5.638999938964844,1.1109999418258667 C6.7870001792907715,0.8149999976158142 6.7870001792907715,-0.8149999976158142 5.638999938964844,-1.1109999418258667 C5.638999938964844,-1.1109999418258667 2.694999933242798,-1.871000051498413 2.694999933242798,-1.871000051498413 C2.2909998893737793,-1.975000023841858 1.975000023841858,-2.2909998893737793 1.871000051498413,-2.694999933242798 C1.871000051498413,-2.694999933242798 1.1109999418258667,-5.638999938964844 1.1109999418258667,-5.638999938964844z"></path></g></g><g transform="matrix(-1,0,0,-1,114.5,12)" opacity="1" style="display: block;"><g opacity="1" transform="matrix(1,0,0,1,0,0)"><path fill="rgb(206,175,244)" fill-opacity="1" d=" M1.1109999418258667,-5.638999938964844 C0.8149999976158142,-6.7870001792907715 -0.8149999976158142,-6.7870001792907715 -1.1109999418258667,-5.638999938964844 C-1.1109999418258667,-5.638999938964844 -1.871000051498413,-2.694999933242798 -1.871000051498413,-2.694999933242798 C-1.975000023841858,-2.2909998893737793 -2.2909998893737793,-1.975000023841858 -2.694999933242798,-1.871000051498413 C-2.694999933242798,-1.871000051498413 -5.638999938964844,-1.1109999418258667 -5.638999938964844,-1.1109999418258667 C-6.7870001792907715,-0.8149999976158142 -6.7870001792907715,0.8149999976158142 -5.638999938964844,1.1109999418258667 C-5.638999938964844,1.1109999418258667 -2.694999933242798,1.871000051498413 -2.694999933242798,1.871000051498413 C-2.2909998893737793,1.975000023841858 -1.975000023841858,2.2909998893737793 -1.871000051498413,2.694999933242798 C-1.871000051498413,2.694999933242798 -1.1109999418258667,5.638999938964844 -1.1109999418258667,5.638999938964844 C-0.8149999976158142,6.7870001792907715 0.8149999976158142,6.7870001792907715 1.1109999418258667,5.638999938964844 C1.1109999418258667,5.638999938964844 1.871000051498413,2.694999933242798 1.871000051498413,2.694999933242798 C1.975000023841858,2.2909998893737793 2.2909998893737793,1.975000023841858 2.694999933242798,1.871000051498413 C2.694999933242798,1.871000051498413 5.638999938964844,1.1109999418258667 5.638999938964844,1.1109999418258667 C6.7870001792907715,0.8149999976158142 6.7870001792907715,-0.8149999976158142 5.638999938964844,-1.1109999418258667 C5.638999938964844,-1.1109999418258667 2.694999933242798,-1.871000051498413 2.694999933242798,-1.871000051498413 C2.2909998893737793,-1.975000023841858 1.975000023841858,-2.2909998893737793 1.871000051498413,-2.694999933242798 C1.871000051498413,-2.694999933242798 1.1109999418258667,-5.638999938964844 1.1109999418258667,-5.638999938964844z"></path></g></g><g transform="matrix(1,0,0,1,15.5,99)" opacity="1" style="display: block;"><g opacity="1" transform="matrix(1,0,0,1,0,0)"><path fill="rgb(206,175,244)" fill-opacity="1" d=" M1.3680000305175781,-6.940000057220459 C1.003000020980835,-8.352999687194824 -1.003000020980835,-8.352999687194824 -1.3680000305175781,-6.940000057220459 C-1.3680000305175781,-6.940000057220459 -2.302000045776367,-3.316999912261963 -2.302000045776367,-3.316999912261963 C-2.430000066757202,-2.819000005722046 -2.819000005722046,-2.430000066757202 -3.316999912261963,-2.302000045776367 C-3.316999912261963,-2.302000045776367 -6.940000057220459,-1.3680000305175781 -6.940000057220459,-1.3680000305175781 C-8.352999687194824,-1.003000020980835 -8.352999687194824,1.003000020980835 -6.940000057220459,1.3680000305175781 C-6.940000057220459,1.3680000305175781 -3.316999912261963,2.302000045776367 -3.316999912261963,2.302000045776367 C-2.819000005722046,2.430000066757202 -2.430000066757202,2.819000005722046 -2.302000045776367,3.316999912261963 C-2.302000045776367,3.316999912261963 -1.3680000305175781,6.940000057220459 -1.3680000305175781,6.940000057220459 C-1.003000020980835,8.352999687194824 1.003000020980835,8.352999687194824 1.3680000305175781,6.940000057220459 C1.3680000305175781,6.940000057220459 2.302000045776367,3.316999912261963 2.302000045776367,3.316999912261963 C2.430000066757202,2.819000005722046 2.819000005722046,2.430000066757202 3.316999912261963,2.302000045776367 C3.316999912261963,2.302000045776367 6.940000057220459,1.3680000305175781 6.940000057220459,1.3680000305175781 C8.352999687194824,1.003000020980835 8.352999687194824,-1.003000020980835 6.940000057220459,-1.3680000305175781 C6.940000057220459,-1.3680000305175781 3.316999912261963,-2.302000045776367 3.316999912261963,-2.302000045776367 C2.819000005722046,-2.430000066757202 2.430000066757202,-2.819000005722046 2.302000045776367,-3.316999912261963 C2.302000045776367,-3.316999912261963 1.3680000305175781,-6.940000057220459 1.3680000305175781,-6.940000057220459z"></path></g></g></g></svg>