<svg xmlns="http://www.w3.org/2000/svg" xmlns:xlink="http://www.w3.org/1999/xlink" width="1080" zoomAndPan="magnify" viewBox="0 0 810 809.999993" height="1080" preserveAspectRatio="xMidYMid meet" version="1.0"><path fill="#231f20" d="M 414.898438 216.722656 C 415.207031 219.546875 415.574219 222.363281 416.003906 225.171875 C 416.429688 227.980469 416.917969 230.777344 417.460938 233.566406 C 418.007812 236.351562 418.613281 239.128906 419.277344 241.890625 C 419.9375 244.652344 420.660156 247.398438 421.4375 250.128906 C 422.21875 252.863281 423.054688 255.574219 423.949219 258.273438 C 424.84375 260.96875 425.792969 263.644531 426.800781 266.300781 C 427.808594 268.957031 428.871094 271.589844 429.988281 274.199219 C 431.109375 276.8125 432.28125 279.398438 433.507812 281.960938 C 434.738281 284.519531 436.019531 287.054688 437.355469 289.5625 C 438.691406 292.070312 440.078125 294.546875 441.515625 296.996094 C 442.957031 299.445312 444.449219 301.863281 445.992188 304.246094 C 447.53125 306.632812 449.125 308.984375 450.765625 311.300781 C 452.410156 313.621094 454.097656 315.902344 455.835938 318.148438 C 457.574219 320.394531 459.359375 322.605469 461.191406 324.777344 C 463.023438 326.945312 464.898438 329.078125 466.820312 331.167969 C 468.742188 333.261719 470.707031 335.3125 472.71875 337.320312 C 474.726562 339.328125 476.777344 341.292969 478.867188 343.214844 C 480.960938 345.136719 483.089844 347.015625 485.261719 348.847656 C 487.433594 350.679688 489.640625 352.464844 491.886719 354.203125 C 494.136719 355.941406 496.417969 357.628906 498.734375 359.269531 C 501.054688 360.914062 503.40625 362.503906 505.789062 364.046875 C 508.175781 365.589844 510.59375 367.082031 513.042969 368.519531 C 515.488281 369.960938 517.96875 371.347656 520.472656 372.683594 C 522.980469 374.019531 525.515625 375.300781 528.078125 376.527344 C 530.636719 377.757812 533.226562 378.929688 535.835938 380.050781 C 538.445312 381.167969 541.082031 382.230469 543.734375 383.238281 C 546.390625 384.246094 549.066406 385.195312 551.765625 386.089844 C 554.460938 386.984375 557.175781 387.820312 559.90625 388.601562 C 562.636719 389.378906 565.382812 390.101562 568.148438 390.761719 C 570.910156 391.425781 573.683594 392.03125 576.472656 392.578125 C 579.257812 393.121094 582.054688 393.609375 584.863281 394.035156 C 587.671875 394.464844 590.488281 394.832031 593.3125 395.140625 C 648.078125 401.140625 718.769531 405.019531 810.035156 405.019531 C 718.773438 405.019531 648.078125 408.898438 593.3125 414.898438 C 590.488281 415.207031 587.671875 415.574219 584.863281 416.003906 C 582.054688 416.429688 579.257812 416.917969 576.472656 417.460938 C 573.683594 418.007812 570.910156 418.613281 568.144531 419.277344 C 565.382812 419.9375 562.636719 420.660156 559.90625 421.4375 C 557.175781 422.21875 554.460938 423.054688 551.765625 423.949219 C 549.066406 424.84375 546.390625 425.792969 543.734375 426.800781 C 541.082031 427.808594 538.445312 428.871094 535.835938 429.988281 C 533.226562 431.109375 530.636719 432.28125 528.078125 433.507812 C 525.515625 434.738281 522.980469 436.019531 520.472656 437.355469 C 517.96875 438.6875 515.488281 440.078125 513.039062 441.515625 C 510.59375 442.957031 508.175781 444.449219 505.789062 445.988281 C 503.40625 447.53125 501.054688 449.125 498.734375 450.765625 C 496.417969 452.40625 494.132812 454.097656 491.886719 455.835938 C 489.640625 457.574219 487.433594 459.359375 485.261719 461.191406 C 483.089844 463.023438 480.960938 464.898438 478.867188 466.820312 C 476.777344 468.742188 474.726562 470.707031 472.71875 472.71875 C 470.707031 474.726562 468.742188 476.777344 466.820312 478.867188 C 464.898438 480.957031 463.023438 483.089844 461.191406 485.261719 C 459.359375 487.433594 457.574219 489.640625 455.835938 491.886719 C 454.097656 494.132812 452.40625 496.417969 450.765625 498.734375 C 449.125 501.054688 447.53125 503.40625 445.988281 505.789062 C 444.449219 508.175781 442.957031 510.59375 441.515625 513.039062 C 440.078125 515.488281 438.6875 517.96875 437.355469 520.472656 C 436.019531 522.980469 434.738281 525.515625 433.507812 528.078125 C 432.28125 530.636719 431.109375 533.226562 429.988281 535.835938 C 428.871094 538.445312 427.808594 541.082031 426.800781 543.734375 C 425.792969 546.390625 424.84375 549.066406 423.949219 551.765625 C 423.054688 554.460938 422.21875 557.175781 421.4375 559.90625 C 420.660156 562.636719 419.9375 565.382812 419.277344 568.144531 C 418.613281 570.910156 418.007812 573.683594 417.460938 576.472656 C 416.917969 579.257812 416.429688 582.054688 416.003906 584.863281 C 415.574219 587.671875 415.207031 590.488281 414.898438 593.3125 C 408.898438 648.078125 405.019531 718.769531 405.019531 810.035156 C 405.019531 718.773438 401.140625 648.078125 395.140625 593.3125 C 394.832031 590.488281 394.464844 587.671875 394.035156 584.863281 C 393.609375 582.054688 393.121094 579.257812 392.578125 576.472656 C 392.03125 573.683594 391.425781 570.910156 390.761719 568.148438 C 390.101562 565.382812 389.378906 562.636719 388.601562 559.90625 C 387.820312 557.175781 386.984375 554.460938 386.089844 551.765625 C 385.195312 549.066406 384.246094 546.390625 383.238281 543.734375 C 382.230469 541.082031 381.167969 538.445312 380.050781 535.835938 C 378.929688 533.226562 377.757812 530.636719 376.527344 528.078125 C 375.300781 525.515625 374.019531 522.980469 372.683594 520.472656 C 371.347656 517.96875 369.960938 515.488281 368.519531 513.042969 C 367.082031 510.59375 365.589844 508.175781 364.046875 505.789062 C 362.503906 503.40625 360.914062 501.054688 359.269531 498.734375 C 357.628906 496.417969 355.941406 494.136719 354.203125 491.886719 C 352.464844 489.640625 350.679688 487.433594 348.847656 485.261719 C 347.015625 483.089844 345.136719 480.960938 343.214844 478.867188 C 341.292969 476.777344 339.328125 474.726562 337.320312 472.71875 C 335.3125 470.707031 333.261719 468.742188 331.167969 466.820312 C 329.078125 464.898438 326.945312 463.023438 324.777344 461.191406 C 322.605469 459.359375 320.394531 457.574219 318.148438 455.835938 C 315.902344 454.097656 313.621094 452.410156 311.300781 450.765625 C 308.984375 449.125 306.632812 447.53125 304.246094 445.992188 C 301.859375 444.449219 299.445312 442.957031 296.996094 441.515625 C 294.546875 440.078125 292.070312 438.691406 289.5625 437.355469 C 287.054688 436.019531 284.519531 434.738281 281.960938 433.507812 C 279.398438 432.28125 276.8125 431.109375 274.199219 429.988281 C 271.589844 428.871094 268.957031 427.808594 266.300781 426.800781 C 263.644531 425.792969 260.96875 424.84375 258.273438 423.949219 C 255.574219 423.054688 252.863281 422.21875 250.128906 421.4375 C 247.398438 420.660156 244.652344 419.9375 241.890625 419.277344 C 239.128906 418.613281 236.351562 418.007812 233.566406 417.460938 C 230.777344 416.917969 227.980469 416.429688 225.171875 416.003906 C 222.363281 415.574219 219.546875 415.207031 216.722656 414.898438 C 161.957031 408.898438 91.261719 405.019531 0 405.019531 C 91.261719 405.019531 161.957031 401.140625 216.722656 395.140625 C 219.546875 394.832031 222.363281 394.464844 225.171875 394.035156 C 227.980469 393.609375 230.777344 393.121094 233.566406 392.578125 C 236.351562 392.03125 239.128906 391.425781 241.890625 390.761719 C 244.652344 390.101562 247.398438 389.378906 250.128906 388.597656 C 252.863281 387.820312 255.574219 386.984375 258.273438 386.089844 C 260.96875 385.195312 263.644531 384.246094 266.300781 383.238281 C 268.957031 382.230469 271.589844 381.167969 274.199219 380.046875 C 276.8125 378.929688 279.398438 377.757812 281.960938 376.527344 C 284.519531 375.300781 287.054688 374.019531 289.5625 372.683594 C 292.070312 371.347656 294.546875 369.960938 296.996094 368.519531 C 299.445312 367.082031 301.859375 365.589844 304.246094 364.046875 C 306.632812 362.503906 308.984375 360.914062 311.300781 359.269531 C 313.621094 357.628906 315.902344 355.9375 318.148438 354.199219 C 320.394531 352.460938 322.605469 350.675781 324.773438 348.847656 C 326.945312 347.015625 329.078125 345.136719 331.167969 343.214844 C 333.261719 341.292969 335.3125 339.328125 337.320312 337.320312 C 339.328125 335.3125 341.292969 333.261719 343.214844 331.167969 C 345.136719 329.078125 347.015625 326.945312 348.847656 324.773438 C 350.675781 322.605469 352.460938 320.394531 354.199219 318.148438 C 355.9375 315.902344 357.628906 313.621094 359.269531 311.300781 C 360.914062 308.984375 362.503906 306.632812 364.046875 304.246094 C 365.589844 301.859375 367.082031 299.445312 368.519531 296.996094 C 369.960938 294.546875 371.347656 292.070312 372.683594 289.5625 C 374.019531 287.054688 375.300781 284.519531 376.527344 281.960938 C 377.757812 279.398438 378.929688 276.8125 380.046875 274.199219 C 381.167969 271.589844 382.230469 268.957031 383.238281 266.300781 C 384.246094 263.644531 385.195312 260.96875 386.089844 258.273438 C 386.984375 255.574219 387.820312 252.863281 388.597656 250.128906 C 389.378906 247.398438 390.101562 244.652344 390.761719 241.890625 C 391.425781 239.128906 392.03125 236.351562 392.578125 233.566406 C 393.121094 230.777344 393.609375 227.980469 394.035156 225.171875 C 394.464844 222.363281 394.832031 219.546875 395.140625 216.722656 C 401.140625 161.957031 405.019531 91.265625 405.019531 0 C 405.019531 91.261719 408.898438 161.957031 414.898438 216.722656 Z M 414.898438 216.722656 " fill-opacity="1" fill-rule="nonzero"/></svg>