<svg xmlns="http://www.w3.org/2000/svg" xmlns:xlink="http://www.w3.org/1999/xlink" width="500" zoomAndPan="magnify" viewBox="0 0 375 225" height="300" preserveAspectRatio="xMidYMid meet" version="1.0"><defs><g/><clipPath id="9e85103394"><path d="M 4.332031 27 L 370.332031 27 L 370.332031 95 L 4.332031 95 Z M 4.332031 27 " clip-rule="nonzero"/></clipPath><clipPath id="ad3cc5d4ad"><path d="M 24.113281 14.464844 L 126.683594 14.464844 L 126.683594 108.039062 L 24.113281 108.039062 Z M 24.113281 14.464844 " clip-rule="nonzero"/></clipPath><clipPath id="9f062cc5b8"><path d="M 72.230469 154 L 79 154 L 79 160 L 72.230469 160 Z M 72.230469 154 " clip-rule="nonzero"/></clipPath><clipPath id="afbf4a408f"><path d="M 83 148.628906 L 267 148.628906 L 267 210.878906 L 83 210.878906 Z M 83 148.628906 " clip-rule="nonzero"/></clipPath><clipPath id="7ee2d49be4"><path d="M 260 165 L 288.230469 165 L 288.230469 192 L 260 192 Z M 260 165 " clip-rule="nonzero"/></clipPath></defs><g clip-path="url(#9e85103394)"><path fill="#8c52ff" d="M 353.871094 27.808594 L 21.117188 27.808594 C 11.847656 27.808594 4.332031 35.324219 4.332031 44.59375 L 4.332031 77.910156 C 4.332031 87.179688 11.847656 94.695312 21.117188 94.695312 L 353.871094 94.695312 C 363.140625 94.695312 370.660156 87.179688 370.660156 77.910156 L 370.660156 44.59375 C 370.660156 35.324219 363.140625 27.808594 353.871094 27.808594 " fill-opacity="1" fill-rule="nonzero"/></g><g clip-path="url(#ad3cc5d4ad)"><path fill="#fcb700" d="M 109.542969 14.464844 L 41.039062 14.464844 C 31.765625 14.464844 24.25 21.980469 24.25 31.253906 L 24.25 91.25 C 24.25 100.523438 31.765625 108.039062 41.039062 108.039062 L 109.542969 108.039062 C 118.816406 108.039062 126.335938 100.523438 126.335938 91.25 L 126.335938 31.253906 C 126.335938 21.980469 118.816406 14.464844 109.542969 14.464844 " fill-opacity="1" fill-rule="nonzero"/></g><path fill="#fcb228" d="M 176.042969 56.507812 L 164.523438 56.507812 C 164.109375 56.507812 163.746094 56.242188 163.617188 55.851562 L 160.058594 44.890625 C 159.769531 44.015625 158.535156 44.015625 158.25 44.890625 L 154.6875 55.851562 C 154.5625 56.242188 154.195312 56.507812 153.785156 56.507812 L 142.261719 56.507812 C 141.339844 56.507812 140.957031 57.6875 141.699219 58.226562 L 151.023438 65 C 151.355469 65.242188 151.496094 65.671875 151.371094 66.0625 L 147.808594 77.019531 C 147.523438 77.898438 148.527344 78.625 149.269531 78.085938 L 158.59375 71.3125 C 158.925781 71.070312 159.378906 71.070312 159.710938 71.3125 L 169.035156 78.085938 C 169.777344 78.625 170.78125 77.898438 170.496094 77.019531 L 166.9375 66.0625 C 166.808594 65.671875 166.949219 65.242188 167.28125 65 L 176.605469 58.226562 C 177.347656 57.6875 176.964844 56.507812 176.042969 56.507812 " fill-opacity="1" fill-rule="nonzero"/><path fill="#fcb228" d="M 220.097656 56.507812 L 208.574219 56.507812 C 208.160156 56.507812 207.796875 56.242188 207.667969 55.851562 L 204.109375 44.890625 C 203.824219 44.015625 202.585938 44.015625 202.300781 44.890625 L 198.738281 55.851562 C 198.613281 56.242188 198.246094 56.507812 197.835938 56.507812 L 186.3125 56.507812 C 185.390625 56.507812 185.007812 57.6875 185.75 58.226562 L 195.074219 65 C 195.410156 65.242188 195.546875 65.671875 195.421875 66.0625 L 191.863281 77.019531 C 191.574219 77.898438 192.578125 78.625 193.320312 78.085938 L 202.644531 71.3125 C 202.980469 71.070312 203.429688 71.070312 203.761719 71.3125 L 213.085938 78.085938 C 213.828125 78.625 214.832031 77.898438 214.546875 77.019531 L 210.988281 66.0625 C 210.859375 65.671875 211 65.242188 211.332031 65 L 220.65625 58.226562 C 221.398438 57.6875 221.015625 56.507812 220.097656 56.507812 " fill-opacity="1" fill-rule="nonzero"/><path fill="#fcb228" d="M 264.148438 56.507812 L 252.625 56.507812 C 252.214844 56.507812 251.847656 56.242188 251.71875 55.851562 L 248.160156 44.890625 C 247.875 44.015625 246.636719 44.015625 246.351562 44.890625 L 242.789062 55.851562 C 242.664062 56.242188 242.296875 56.507812 241.886719 56.507812 L 230.363281 56.507812 C 229.441406 56.507812 229.058594 57.6875 229.804688 58.226562 L 239.125 65 C 239.460938 65.242188 239.597656 65.671875 239.472656 66.0625 L 235.914062 77.019531 C 235.625 77.898438 236.628906 78.625 237.375 78.085938 L 246.695312 71.3125 C 247.03125 71.070312 247.480469 71.070312 247.8125 71.3125 L 257.136719 78.085938 C 257.878906 78.625 258.886719 77.898438 258.597656 77.019531 L 255.039062 66.0625 C 254.910156 65.671875 255.050781 65.242188 255.382812 65 L 264.707031 58.226562 C 265.449219 57.6875 265.070312 56.507812 264.148438 56.507812 " fill-opacity="1" fill-rule="nonzero"/><path fill="#fcb228" d="M 308.199219 56.507812 L 296.675781 56.507812 C 296.265625 56.507812 295.898438 56.242188 295.769531 55.851562 L 292.210938 44.890625 C 291.925781 44.015625 290.6875 44.015625 290.402344 44.890625 L 286.839844 55.851562 C 286.714844 56.242188 286.347656 56.507812 285.9375 56.507812 L 274.414062 56.507812 C 273.492188 56.507812 273.113281 57.6875 273.855469 58.226562 L 283.175781 65 C 283.511719 65.242188 283.648438 65.671875 283.523438 66.0625 L 279.964844 77.019531 C 279.675781 77.898438 280.679688 78.625 281.425781 78.085938 L 290.746094 71.3125 C 291.082031 71.070312 291.53125 71.070312 291.867188 71.3125 L 301.1875 78.085938 C 301.933594 78.625 302.9375 77.898438 302.648438 77.019531 L 299.089844 66.0625 C 298.964844 65.671875 299.101562 65.242188 299.433594 65 L 308.757812 58.226562 C 309.5 57.6875 309.121094 56.507812 308.199219 56.507812 " fill-opacity="1" fill-rule="nonzero"/><path fill="#fcb228" d="M 352.25 56.507812 L 340.726562 56.507812 C 340.316406 56.507812 339.949219 56.242188 339.824219 55.851562 L 336.261719 44.890625 C 335.976562 44.015625 334.738281 44.015625 334.453125 44.890625 L 330.894531 55.851562 C 330.765625 56.242188 330.402344 56.507812 329.992188 56.507812 L 318.464844 56.507812 C 317.546875 56.507812 317.164062 57.6875 317.90625 58.226562 L 327.230469 65 C 327.5625 65.242188 327.699219 65.671875 327.574219 66.0625 L 324.015625 77.019531 C 323.726562 77.898438 324.734375 78.625 325.476562 78.085938 L 334.796875 71.3125 C 335.132812 71.070312 335.585938 71.070312 335.917969 71.3125 L 345.238281 78.085938 C 345.984375 78.625 346.988281 77.898438 346.699219 77.019531 L 343.140625 66.0625 C 343.015625 65.671875 343.152344 65.242188 343.488281 65 L 352.808594 58.226562 C 353.550781 57.6875 353.171875 56.507812 352.25 56.507812 " fill-opacity="1" fill-rule="nonzero"/><path fill="#e6a600" d="M 116.238281 61.25 C 116.238281 82.394531 97.902344 99.535156 75.292969 99.535156 C 52.675781 99.535156 34.347656 82.394531 34.347656 61.25 C 34.347656 40.109375 52.675781 22.96875 75.292969 22.96875 C 97.902344 22.96875 116.238281 40.109375 116.238281 61.25 " fill-opacity="1" fill-rule="nonzero"/><path fill="#000000" d="M 75.3125 69.058594 C 73.109375 69.058594 71.515625 70.710938 71.515625 72.984375 C 71.515625 75.226562 73.128906 76.914062 75.269531 76.914062 C 77.46875 76.914062 79.070312 75.261719 79.070312 72.984375 C 79.070312 70.710938 77.488281 69.058594 75.3125 69.058594 " fill-opacity="1" fill-rule="nonzero"/><path fill="#000000" d="M 56.433594 71.421875 C 54.195312 71.421875 52.152344 70.683594 51.078125 70.046875 L 49.773438 69.269531 L 48.058594 74.488281 L 48.851562 75 C 50.285156 75.925781 53.039062 76.914062 56.476562 76.914062 C 63.207031 76.914062 68.09375 72.386719 68.09375 66.152344 C 68.09375 62.582031 66.414062 59.582031 63.507812 57.929688 C 61.679688 56.832031 59.378906 56.25 56.859375 56.25 C 56.550781 56.25 56.273438 56.257812 56.023438 56.269531 L 56.710938 51.683594 L 67.535156 51.683594 L 67.535156 46.0625 L 51.882812 46.0625 L 49.722656 62.097656 L 51.515625 61.875 C 52.496094 61.753906 53.609375 61.613281 55.011719 61.613281 C 59.496094 61.613281 61.792969 63.289062 61.828125 66.582031 C 61.828125 69.910156 59.03125 71.421875 56.433594 71.421875 " fill-opacity="1" fill-rule="nonzero"/><path fill="#000000" d="M 91.847656 50.953125 C 95.722656 50.953125 96.300781 57.324219 96.300781 61.125 C 96.300781 64.261719 95.863281 71.550781 91.804688 71.550781 C 89.058594 71.550781 87.351562 67.652344 87.351562 61.378906 C 87.351562 55.046875 89.117188 50.953125 91.847656 50.953125 Z M 91.589844 76.914062 C 98.539062 76.914062 102.523438 71.097656 102.523438 60.953125 C 102.523438 51.332031 98.613281 45.589844 92.0625 45.589844 C 85.421875 45.589844 81.128906 51.769531 81.128906 61.347656 C 81.21875 70.949219 85.230469 76.914062 91.589844 76.914062 " fill-opacity="1" fill-rule="nonzero"/><g clip-path="url(#9f062cc5b8)"><path fill="#000000" d="M 73.78125 159.679688 C 73.484375 159.679688 73.214844 159.597656 72.96875 159.429688 C 72.722656 159.261719 72.546875 159.035156 72.4375 158.757812 C 72.332031 158.480469 72.3125 158.199219 72.378906 157.90625 C 72.449219 157.617188 72.59375 157.375 72.8125 157.171875 C 73.929688 156.152344 75.113281 155.222656 76.367188 154.378906 C 76.527344 154.265625 76.699219 154.1875 76.890625 154.144531 C 77.078125 154.101562 77.269531 154.097656 77.460938 154.132812 C 77.652344 154.167969 77.828125 154.238281 77.992188 154.34375 C 78.152344 154.453125 78.289062 154.585938 78.398438 154.746094 C 78.503906 154.910156 78.578125 155.085938 78.613281 155.277344 C 78.652344 155.46875 78.648438 155.660156 78.609375 155.847656 C 78.570312 156.039062 78.492188 156.214844 78.382812 156.375 C 78.269531 156.535156 78.132812 156.664062 77.96875 156.769531 C 76.835938 157.535156 75.761719 158.378906 74.75 159.300781 C 74.476562 159.554688 74.152344 159.679688 73.78125 159.679688 Z M 73.78125 159.679688 " fill-opacity="1" fill-rule="nonzero"/></g><g clip-path="url(#afbf4a408f)"><path fill="#000000" d="M 203.699219 210.800781 C 203.394531 210.800781 203.09375 210.800781 202.792969 210.800781 C 202.601562 210.796875 202.417969 210.757812 202.246094 210.679688 C 202.070312 210.605469 201.917969 210.496094 201.785156 210.359375 C 201.652344 210.21875 201.550781 210.0625 201.484375 209.882812 C 201.414062 209.707031 201.382812 209.519531 201.386719 209.328125 C 201.390625 209.136719 201.429688 208.957031 201.507812 208.78125 C 201.582031 208.605469 201.691406 208.453125 201.828125 208.320312 C 201.96875 208.1875 202.125 208.085938 202.300781 208.019531 C 202.480469 207.949219 202.664062 207.917969 202.855469 207.921875 C 204.464844 207.957031 206.066406 207.890625 207.667969 207.722656 C 208.78125 207.597656 209.882812 207.40625 210.976562 207.144531 C 211.160156 207.109375 211.34375 207.105469 211.527344 207.140625 C 211.710938 207.175781 211.878906 207.242188 212.039062 207.34375 C 212.195312 207.445312 212.328125 207.570312 212.4375 207.722656 C 212.542969 207.875 212.621094 208.042969 212.664062 208.226562 C 212.707031 208.410156 212.710938 208.59375 212.683594 208.777344 C 212.65625 208.964844 212.59375 209.136719 212.496094 209.296875 C 212.402344 209.457031 212.277344 209.59375 212.128906 209.707031 C 211.980469 209.820312 211.8125 209.902344 211.632812 209.949219 C 210.425781 210.234375 209.203125 210.445312 207.964844 210.574219 C 206.546875 210.722656 205.125 210.800781 203.699219 210.800781 Z M 194.363281 209.753906 C 194.257812 209.753906 194.152344 209.742188 194.050781 209.71875 C 191.191406 209.078125 188.402344 208.214844 185.683594 207.125 C 185.511719 207.050781 185.359375 206.949219 185.226562 206.8125 C 185.09375 206.679688 184.992188 206.527344 184.921875 206.355469 C 184.851562 206.179688 184.8125 206 184.8125 205.8125 C 184.8125 205.625 184.84375 205.445312 184.914062 205.269531 C 184.984375 205.097656 185.082031 204.941406 185.210938 204.804688 C 185.339844 204.671875 185.492188 204.5625 185.660156 204.488281 C 185.832031 204.410156 186.011719 204.367188 186.199219 204.363281 C 186.386719 204.355469 186.566406 204.382812 186.742188 204.449219 C 189.320312 205.484375 191.960938 206.304688 194.667969 206.914062 C 194.84375 206.953125 195.003906 207.019531 195.152344 207.117188 C 195.304688 207.214844 195.429688 207.335938 195.535156 207.480469 C 195.636719 207.625 195.714844 207.78125 195.757812 207.953125 C 195.804688 208.128906 195.816406 208.300781 195.796875 208.480469 C 195.78125 208.65625 195.730469 208.824219 195.648438 208.984375 C 195.566406 209.140625 195.460938 209.28125 195.328125 209.398438 C 195.195312 209.519531 195.042969 209.609375 194.878906 209.671875 C 194.710938 209.734375 194.539062 209.765625 194.363281 209.765625 Z M 219.246094 206.910156 C 218.917969 206.910156 218.625 206.808594 218.367188 206.605469 C 218.109375 206.40625 217.9375 206.144531 217.855469 205.828125 C 217.773438 205.507812 217.796875 205.199219 217.929688 204.898438 C 218.058594 204.59375 218.265625 204.363281 218.554688 204.207031 C 220.957031 202.882812 223.160156 201.285156 225.164062 199.410156 C 225.304688 199.285156 225.464844 199.1875 225.640625 199.125 C 225.820312 199.0625 226 199.035156 226.1875 199.042969 C 226.378906 199.054688 226.554688 199.097656 226.726562 199.175781 C 226.898438 199.253906 227.046875 199.363281 227.175781 199.503906 C 227.304688 199.640625 227.398438 199.796875 227.46875 199.972656 C 227.535156 200.148438 227.5625 200.332031 227.558594 200.519531 C 227.554688 200.710938 227.515625 200.890625 227.4375 201.0625 C 227.363281 201.234375 227.257812 201.386719 227.121094 201.519531 C 224.941406 203.554688 222.546875 205.292969 219.9375 206.734375 C 219.722656 206.851562 219.492188 206.910156 219.25 206.910156 Z M 178.507812 203.53125 C 178.261719 203.53125 178.027344 203.472656 177.8125 203.351562 C 175.28125 201.9375 172.824219 200.402344 170.445312 198.742188 C 170.289062 198.632812 170.160156 198.496094 170.054688 198.335938 C 169.953125 198.175781 169.882812 198 169.847656 197.8125 C 169.816406 197.625 169.816406 197.4375 169.859375 197.25 C 169.898438 197.0625 169.972656 196.890625 170.082031 196.734375 C 170.191406 196.578125 170.324219 196.445312 170.484375 196.34375 C 170.644531 196.238281 170.820312 196.171875 171.007812 196.136719 C 171.195312 196.101562 171.382812 196.105469 171.570312 196.148438 C 171.753906 196.1875 171.925781 196.261719 172.082031 196.371094 C 174.46875 198.03125 176.867188 199.542969 179.207031 200.832031 C 179.492188 200.992188 179.699219 201.222656 179.828125 201.523438 C 179.957031 201.824219 179.980469 202.136719 179.898438 202.453125 C 179.816406 202.769531 179.644531 203.03125 179.386719 203.230469 C 179.128906 203.433594 178.835938 203.53125 178.507812 203.53125 Z M 224.105469 197.066406 L 224.03125 197.066406 C 223.839844 197.066406 223.65625 197.03125 223.480469 196.957031 C 223.304688 196.882812 223.148438 196.78125 223.015625 196.644531 C 222.878906 196.507812 222.773438 196.355469 222.703125 196.175781 C 222.628906 196 222.59375 195.816406 222.59375 195.625 C 222.59375 195.433594 222.628906 195.25 222.703125 195.074219 C 222.773438 194.898438 222.878906 194.742188 223.015625 194.605469 C 223.148438 194.472656 223.304688 194.367188 223.480469 194.292969 C 223.65625 194.222656 223.839844 194.183594 224.03125 194.183594 L 224.105469 194.183594 C 226.121094 194.175781 228.136719 194.0625 230.140625 193.835938 C 230.152344 193.582031 230.222656 193.347656 230.359375 193.128906 C 231.816406 190.832031 232.878906 188.359375 233.539062 185.714844 C 233.582031 185.53125 233.660156 185.359375 233.773438 185.207031 C 233.886719 185.050781 234.023438 184.921875 234.1875 184.824219 C 234.351562 184.722656 234.527344 184.660156 234.714844 184.628906 C 234.902344 184.601562 235.089844 184.609375 235.277344 184.65625 C 235.460938 184.699219 235.632812 184.777344 235.785156 184.890625 C 235.941406 185.003906 236.066406 185.144531 236.164062 185.308594 C 236.265625 185.472656 236.328125 185.648438 236.355469 185.835938 C 236.386719 186.027344 236.378906 186.214844 236.332031 186.398438 C 235.683594 189.007812 234.679688 191.472656 233.320312 193.789062 C 233.570312 193.953125 233.753906 194.175781 233.867188 194.453125 C 233.976562 194.734375 234 195.019531 233.9375 195.3125 C 233.871094 195.605469 233.726562 195.855469 233.503906 196.058594 C 233.285156 196.261719 233.023438 196.382812 232.726562 196.425781 L 231.972656 196.523438 C 229.363281 196.871094 226.738281 197.050781 224.105469 197.066406 Z M 215.558594 196.140625 C 215.445312 196.140625 215.335938 196.128906 215.226562 196.101562 C 213.84375 195.773438 212.492188 195.34375 211.171875 194.820312 C 209.691406 194.226562 208.285156 193.492188 206.953125 192.625 C 206.785156 192.523438 206.648438 192.390625 206.535156 192.234375 C 206.421875 192.074219 206.34375 191.902344 206.300781 191.710938 C 206.257812 191.523438 206.253906 191.332031 206.289062 191.140625 C 206.320312 190.949219 206.390625 190.773438 206.496094 190.609375 C 206.601562 190.445312 206.734375 190.308594 206.898438 190.203125 C 207.058594 190.09375 207.234375 190.019531 207.421875 189.980469 C 207.613281 189.945312 207.804688 189.945312 207.992188 189.984375 C 208.183594 190.023438 208.359375 190.097656 208.519531 190.207031 C 209.695312 190.976562 210.933594 191.621094 212.238281 192.140625 C 213.433594 192.617188 214.65625 193 215.910156 193.292969 C 216.082031 193.335938 216.242188 193.40625 216.386719 193.503906 C 216.535156 193.601562 216.660156 193.722656 216.761719 193.871094 C 216.863281 194.015625 216.933594 194.171875 216.976562 194.34375 C 217.019531 194.515625 217.03125 194.691406 217.011719 194.867188 C 216.992188 195.042969 216.941406 195.207031 216.859375 195.367188 C 216.777344 195.523438 216.667969 195.660156 216.535156 195.777344 C 216.40625 195.894531 216.253906 195.984375 216.089844 196.046875 C 215.925781 196.109375 215.753906 196.140625 215.578125 196.136719 Z M 240.949219 194.867188 C 240.769531 194.867188 240.601562 194.835938 240.4375 194.773438 C 240.269531 194.710938 240.121094 194.621094 239.992188 194.503906 C 239.859375 194.386719 239.753906 194.25 239.671875 194.089844 C 239.589844 193.933594 239.539062 193.769531 239.519531 193.59375 C 239.496094 193.417969 239.507812 193.242188 239.554688 193.070312 C 239.597656 192.898438 239.667969 192.742188 239.769531 192.597656 C 239.871094 192.453125 239.996094 192.332031 240.144531 192.230469 C 240.289062 192.132812 240.449219 192.0625 240.621094 192.023438 C 243.328125 191.382812 246.046875 190.601562 248.695312 189.71875 C 248.878906 189.65625 249.066406 189.628906 249.257812 189.640625 C 249.449219 189.648438 249.628906 189.699219 249.804688 189.78125 C 249.976562 189.867188 250.125 189.980469 250.253906 190.125 C 250.378906 190.269531 250.472656 190.433594 250.535156 190.613281 C 250.597656 190.796875 250.621094 190.984375 250.609375 191.175781 C 250.59375 191.367188 250.546875 191.550781 250.460938 191.722656 C 250.375 191.894531 250.257812 192.042969 250.113281 192.167969 C 249.964844 192.296875 249.800781 192.386719 249.621094 192.449219 C 246.878906 193.375 244.074219 194.175781 241.285156 194.84375 C 241.171875 194.863281 241.0625 194.871094 240.949219 194.867188 Z M 164.453125 193.832031 C 164.109375 193.832031 163.804688 193.722656 163.542969 193.503906 C 162.5625 192.699219 161.566406 191.859375 160.582031 191 C 159.453125 190.011719 158.28125 188.984375 157.042969 187.832031 C 156.902344 187.703125 156.789062 187.550781 156.710938 187.378906 C 156.628906 187.207031 156.582031 187.023438 156.574219 186.832031 C 156.566406 186.644531 156.59375 186.457031 156.65625 186.277344 C 156.722656 186.097656 156.820312 185.9375 156.945312 185.796875 C 157.074219 185.65625 157.226562 185.542969 157.398438 185.460938 C 157.570312 185.378906 157.75 185.335938 157.941406 185.328125 C 158.132812 185.316406 158.316406 185.34375 158.496094 185.410156 C 158.675781 185.472656 158.835938 185.570312 158.976562 185.699219 C 160.214844 186.828125 161.355469 187.847656 162.46875 188.824219 C 163.429688 189.660156 164.402344 190.484375 165.363281 191.269531 C 165.597656 191.460938 165.757812 191.703125 165.839844 192 C 165.917969 192.292969 165.910156 192.582031 165.808594 192.867188 C 165.703125 193.15625 165.53125 193.386719 165.28125 193.5625 C 165.03125 193.738281 164.757812 193.824219 164.453125 193.824219 Z M 257.113281 189.394531 C 256.773438 189.390625 256.472656 189.28125 256.210938 189.066406 C 255.949219 188.851562 255.785156 188.578125 255.714844 188.246094 C 255.644531 187.914062 255.6875 187.597656 255.84375 187.296875 C 255.996094 186.992188 256.226562 186.773438 256.539062 186.636719 C 259.085938 185.484375 261.613281 184.222656 264.046875 182.851562 C 264.214844 182.757812 264.390625 182.699219 264.582031 182.675781 C 264.769531 182.65625 264.957031 182.667969 265.140625 182.722656 C 265.324219 182.773438 265.492188 182.859375 265.640625 182.976562 C 265.789062 183.09375 265.914062 183.234375 266.003906 183.402344 C 266.097656 183.570312 266.15625 183.746094 266.179688 183.9375 C 266.203125 184.125 266.1875 184.3125 266.136719 184.496094 C 266.085938 184.683594 266 184.847656 265.882812 185 C 265.765625 185.148438 265.621094 185.269531 265.457031 185.363281 C 262.945312 186.78125 260.335938 188.089844 257.695312 189.265625 C 257.511719 189.351562 257.316406 189.394531 257.113281 189.394531 Z M 201.660156 186.902344 C 201.144531 186.902344 200.742188 186.6875 200.457031 186.253906 C 198.941406 183.996094 198.003906 181.519531 197.644531 178.816406 C 197.585938 178.375 197.550781 177.933594 197.535156 177.5 C 197.527344 177.308594 197.558594 177.125 197.625 176.945312 C 197.6875 176.765625 197.785156 176.605469 197.917969 176.464844 C 198.046875 176.324219 198.199219 176.214844 198.371094 176.136719 C 198.542969 176.054688 198.726562 176.011719 198.917969 176.003906 C 199.105469 175.996094 199.292969 176.027344 199.46875 176.09375 C 199.648438 176.160156 199.808594 176.257812 199.949219 176.386719 C 200.089844 176.515625 200.199219 176.667969 200.277344 176.84375 C 200.359375 177.015625 200.402344 177.199219 200.410156 177.390625 C 200.425781 177.738281 200.453125 178.09375 200.5 178.457031 C 200.800781 180.710938 201.589844 182.78125 202.859375 184.664062 C 203.007812 184.886719 203.085938 185.128906 203.097656 185.394531 C 203.109375 185.660156 203.054688 185.910156 202.929688 186.140625 C 202.804688 186.375 202.628906 186.558594 202.398438 186.695312 C 202.171875 186.832031 201.925781 186.902344 201.664062 186.902344 Z M 151.769531 182.367188 C 151.386719 182.363281 151.054688 182.230469 150.78125 181.96875 L 149.3125 180.566406 C 147.765625 179.09375 146.164062 177.570312 144.582031 176.085938 C 144.449219 175.953125 144.34375 175.800781 144.269531 175.628906 C 144.195312 175.457031 144.15625 175.277344 144.152344 175.089844 C 144.148438 174.902344 144.179688 174.71875 144.25 174.542969 C 144.316406 174.367188 144.414062 174.210938 144.542969 174.074219 C 144.667969 173.9375 144.816406 173.828125 144.988281 173.75 C 145.160156 173.671875 145.335938 173.628906 145.523438 173.621094 C 145.710938 173.613281 145.894531 173.636719 146.070312 173.703125 C 146.246094 173.765625 146.40625 173.859375 146.546875 173.984375 C 148.136719 175.472656 149.738281 177.003906 151.292969 178.480469 L 152.757812 179.878906 C 152.972656 180.082031 153.109375 180.328125 153.171875 180.613281 C 153.234375 180.902344 153.214844 181.183594 153.105469 181.457031 C 152.996094 181.730469 152.820312 181.953125 152.574219 182.117188 C 152.332031 182.28125 152.0625 182.367188 151.769531 182.367188 Z M 235.335938 179.003906 C 234.984375 179.003906 234.675781 178.886719 234.40625 178.65625 C 234.136719 178.429688 233.976562 178.136719 233.921875 177.789062 C 233.691406 176.382812 233.308594 175.023438 232.769531 173.703125 C 232.324219 172.589844 231.734375 171.558594 231.003906 170.613281 C 230.878906 170.460938 230.785156 170.292969 230.730469 170.105469 C 230.671875 169.921875 230.652344 169.730469 230.675781 169.535156 C 230.695312 169.339844 230.75 169.160156 230.847656 168.988281 C 230.941406 168.816406 231.0625 168.671875 231.21875 168.550781 C 231.371094 168.429688 231.542969 168.34375 231.730469 168.292969 C 231.917969 168.242188 232.109375 168.230469 232.300781 168.257812 C 232.496094 168.285156 232.675781 168.347656 232.84375 168.449219 C 233.007812 168.550781 233.148438 168.679688 233.265625 168.835938 C 234.167969 169.996094 234.898438 171.257812 235.445312 172.625 C 236.058594 174.144531 236.492188 175.710938 236.75 177.332031 C 236.78125 177.519531 236.777344 177.707031 236.730469 177.894531 C 236.6875 178.078125 236.609375 178.25 236.5 178.40625 C 236.386719 178.5625 236.25 178.6875 236.085938 178.789062 C 235.925781 178.890625 235.75 178.953125 235.5625 178.984375 C 235.488281 178.996094 235.414062 179.003906 235.335938 179.003906 Z M 201.613281 170.964844 C 201.335938 170.964844 201.082031 170.890625 200.847656 170.742188 C 200.613281 170.59375 200.433594 170.394531 200.316406 170.140625 C 200.199219 169.890625 200.15625 169.625 200.1875 169.347656 C 200.222656 169.074219 200.328125 168.828125 200.503906 168.613281 C 202.320312 166.390625 204.9375 164.578125 208.074219 163.390625 C 208.25 163.324219 208.433594 163.292969 208.625 163.296875 C 208.816406 163.300781 209 163.34375 209.171875 163.421875 C 209.347656 163.5 209.5 163.609375 209.628906 163.75 C 209.761719 163.886719 209.859375 164.046875 209.929688 164.226562 C 209.996094 164.40625 210.027344 164.589844 210.019531 164.78125 C 210.015625 164.972656 209.972656 165.15625 209.894531 165.328125 C 209.816406 165.503906 209.707031 165.65625 209.570312 165.789062 C 209.429688 165.917969 209.269531 166.015625 209.09375 166.085938 C 206.429688 167.097656 204.226562 168.605469 202.726562 170.4375 C 202.4375 170.789062 202.066406 170.964844 201.613281 170.964844 Z M 139.242188 170.722656 C 138.882812 170.726562 138.570312 170.609375 138.296875 170.375 C 135.996094 168.359375 133.851562 166.601562 131.765625 165 C 131.609375 164.886719 131.476562 164.75 131.375 164.582031 C 131.273438 164.414062 131.207031 164.234375 131.179688 164.042969 C 131.152344 163.851562 131.160156 163.660156 131.210938 163.46875 C 131.257812 163.28125 131.339844 163.109375 131.460938 162.953125 C 131.578125 162.796875 131.722656 162.671875 131.890625 162.574219 C 132.058594 162.480469 132.242188 162.421875 132.433594 162.398438 C 132.628906 162.375 132.816406 162.390625 133.003906 162.445312 C 133.191406 162.5 133.359375 162.589844 133.511719 162.714844 C 135.648438 164.351562 137.824219 166.144531 140.183594 168.203125 C 140.410156 168.402344 140.5625 168.644531 140.632812 168.9375 C 140.707031 169.226562 140.691406 169.515625 140.585938 169.796875 C 140.480469 170.078125 140.304688 170.304688 140.058594 170.472656 C 139.8125 170.644531 139.539062 170.730469 139.238281 170.730469 Z M 225.304688 166.195312 C 225.121094 166.195312 224.941406 166.160156 224.773438 166.089844 C 222.273438 165.128906 219.6875 164.652344 217.011719 164.671875 L 216.945312 164.671875 C 216.753906 164.671875 216.570312 164.632812 216.394531 164.5625 C 216.21875 164.488281 216.0625 164.382812 215.929688 164.25 C 215.792969 164.113281 215.691406 163.957031 215.617188 163.78125 C 215.542969 163.605469 215.507812 163.421875 215.507812 163.230469 C 215.507812 163.039062 215.542969 162.855469 215.617188 162.679688 C 215.691406 162.5 215.792969 162.347656 215.929688 162.210938 C 216.0625 162.074219 216.21875 161.972656 216.394531 161.898438 C 216.570312 161.824219 216.753906 161.789062 216.945312 161.789062 L 217.019531 161.789062 C 220.058594 161.773438 222.996094 162.316406 225.828125 163.414062 C 226.152344 163.542969 226.394531 163.757812 226.5625 164.058594 C 226.726562 164.363281 226.777344 164.683594 226.710938 165.023438 C 226.648438 165.363281 226.480469 165.644531 226.214844 165.867188 C 225.949219 166.085938 225.644531 166.195312 225.296875 166.195312 Z M 125.632812 160.398438 C 125.359375 160.398438 125.105469 160.324219 124.871094 160.175781 C 123.703125 159.445312 122.519531 158.734375 121.355469 158.101562 C 120.121094 157.417969 118.839844 156.773438 117.542969 156.183594 C 117.375 156.101562 117.230469 155.992188 117.105469 155.851562 C 116.980469 155.710938 116.886719 155.554688 116.824219 155.378906 C 116.761719 155.203125 116.734375 155.023438 116.742188 154.835938 C 116.75 154.648438 116.789062 154.46875 116.867188 154.300781 C 116.945312 154.128906 117.050781 153.980469 117.183594 153.851562 C 117.320312 153.722656 117.472656 153.621094 117.644531 153.554688 C 117.820312 153.484375 118 153.449219 118.183594 153.453125 C 118.371094 153.453125 118.550781 153.488281 118.722656 153.558594 C 120.089844 154.179688 121.445312 154.859375 122.746094 155.578125 C 123.957031 156.246094 125.183594 156.972656 126.402344 157.734375 C 126.671875 157.90625 126.867188 158.140625 126.980469 158.441406 C 127.09375 158.742188 127.109375 159.046875 127.019531 159.355469 C 126.929688 159.664062 126.757812 159.914062 126.5 160.109375 C 126.246094 160.300781 125.957031 160.398438 125.636719 160.398438 Z M 110.113281 153.398438 C 109.980469 153.398438 109.851562 153.378906 109.726562 153.34375 C 107.054688 152.597656 104.335938 152.070312 101.578125 151.765625 C 101.394531 151.742188 101.21875 151.683594 101.054688 151.589844 C 100.894531 151.496094 100.753906 151.375 100.640625 151.230469 C 100.523438 151.082031 100.441406 150.917969 100.386719 150.738281 C 100.335938 150.554688 100.320312 150.375 100.339844 150.1875 C 100.359375 150 100.414062 149.824219 100.503906 149.660156 C 100.589844 149.492188 100.707031 149.351562 100.851562 149.230469 C 100.996094 149.109375 101.15625 149.023438 101.335938 148.964844 C 101.515625 148.910156 101.695312 148.886719 101.882812 148.902344 C 104.804688 149.222656 107.675781 149.777344 110.503906 150.570312 C 110.851562 150.664062 111.125 150.863281 111.324219 151.164062 C 111.523438 151.464844 111.597656 151.792969 111.546875 152.152344 C 111.5 152.507812 111.339844 152.808594 111.066406 153.042969 C 110.796875 153.28125 110.480469 153.398438 110.121094 153.398438 Z M 84.84375 153.304688 C 84.492188 153.304688 84.179688 153.1875 83.914062 152.957031 C 83.644531 152.730469 83.480469 152.4375 83.425781 152.089844 C 83.371094 151.742188 83.433594 151.414062 83.617188 151.113281 C 83.800781 150.808594 84.0625 150.605469 84.394531 150.492188 C 87.226562 149.582031 90.121094 149.003906 93.082031 148.765625 C 93.273438 148.75 93.460938 148.769531 93.640625 148.828125 C 93.824219 148.886719 93.988281 148.976562 94.132812 149.101562 C 94.28125 149.222656 94.398438 149.371094 94.484375 149.539062 C 94.574219 149.710938 94.625 149.890625 94.640625 150.082031 C 94.65625 150.273438 94.636719 150.460938 94.578125 150.644531 C 94.519531 150.828125 94.429688 150.992188 94.308594 151.136719 C 94.183594 151.285156 94.035156 151.402344 93.867188 151.488281 C 93.695312 151.578125 93.515625 151.628906 93.328125 151.644531 C 90.582031 151.863281 87.898438 152.390625 85.277344 153.230469 C 85.136719 153.277344 84.992188 153.300781 84.839844 153.304688 Z M 84.84375 153.304688 " fill-opacity="1" fill-rule="nonzero"/></g><path fill="#000000" d="M 272.023438 180.996094 C 271.710938 180.996094 271.425781 180.902344 271.171875 180.71875 C 270.917969 180.53125 270.746094 180.285156 270.652344 179.984375 C 270.558594 179.683594 270.5625 179.386719 270.664062 179.085938 C 270.765625 178.789062 270.945312 178.550781 271.207031 178.371094 C 272.355469 177.566406 273.503906 176.726562 274.636719 175.871094 C 274.789062 175.753906 274.957031 175.671875 275.144531 175.625 C 275.328125 175.574219 275.515625 175.5625 275.707031 175.589844 C 275.894531 175.617188 276.074219 175.675781 276.238281 175.773438 C 276.402344 175.871094 276.542969 175.996094 276.660156 176.148438 C 276.773438 176.300781 276.855469 176.46875 276.90625 176.65625 C 276.953125 176.839844 276.964844 177.03125 276.9375 177.21875 C 276.914062 177.410156 276.851562 177.585938 276.753906 177.753906 C 276.660156 177.917969 276.535156 178.058594 276.382812 178.175781 C 275.230469 179.058594 274.039062 179.925781 272.839844 180.769531 C 272.59375 180.929688 272.320312 181.003906 272.023438 180.996094 Z M 272.023438 180.996094 " fill-opacity="1" fill-rule="nonzero"/><g clip-path="url(#7ee2d49be4)"><path fill="#000000" d="M 288.214844 165.171875 C 284.222656 172.929688 280.222656 183.59375 279.273438 191.890625 L 273.714844 178.425781 L 260.851562 171.644531 C 269.179688 171.457031 280.152344 168.441406 288.214844 165.171875 Z M 288.214844 165.171875 " fill-opacity="1" fill-rule="nonzero"/></g><g fill="#000000" fill-opacity="1"><g transform="translate(12.160345, 132.667837)"><g><path d="M 14.40625 0 L 11.28125 0 L 10.15625 -3.453125 L 4.40625 -3.453125 L 3.28125 0 L 0.21875 0 L 5.40625 -15.015625 L 9.21875 -15.015625 Z M 7.140625 -11.875 L 5.203125 -5.953125 L 9.328125 -5.953125 L 7.390625 -11.875 Z M 7.140625 -11.875 "/></g></g></g><g fill="#000000" fill-opacity="1"><g transform="translate(26.789929, 132.667837)"><g><path d="M 6.609375 0.21875 C 5.503906 0.21875 4.53125 -0.0078125 3.6875 -0.46875 C 2.851562 -0.925781 2.195312 -1.59375 1.71875 -2.46875 C 1.25 -3.351562 1.015625 -4.414062 1.015625 -5.65625 C 1.015625 -6.90625 1.25 -7.96875 1.71875 -8.84375 C 2.195312 -9.726562 2.851562 -10.398438 3.6875 -10.859375 C 4.519531 -11.316406 5.472656 -11.546875 6.546875 -11.546875 C 8.941406 -11.546875 10.472656 -10.675781 11.140625 -8.9375 L 9.1875 -7.546875 L 8.96875 -7.546875 C 8.738281 -8.078125 8.4375 -8.472656 8.0625 -8.734375 C 7.6875 -8.992188 7.179688 -9.125 6.546875 -9.125 C 5.722656 -9.125 5.082031 -8.835938 4.625 -8.265625 C 4.164062 -7.703125 3.9375 -6.832031 3.9375 -5.65625 C 3.9375 -4.488281 4.171875 -3.617188 4.640625 -3.046875 C 5.109375 -2.484375 5.765625 -2.203125 6.609375 -2.203125 C 7.222656 -2.203125 7.742188 -2.363281 8.171875 -2.6875 C 8.597656 -3.019531 8.90625 -3.5 9.09375 -4.125 L 9.296875 -4.15625 L 11.328125 -3.046875 C 11.035156 -2.085938 10.5 -1.300781 9.71875 -0.6875 C 8.945312 -0.0820312 7.910156 0.21875 6.609375 0.21875 Z M 6.609375 0.21875 "/></g></g></g><g fill="#000000" fill-opacity="1"><g transform="translate(38.462798, 132.667837)"><g><path d="M 1.625 0 L 1.625 -11.328125 L 4.390625 -11.328125 L 4.390625 -9.640625 L 4.609375 -9.609375 C 4.878906 -10.234375 5.238281 -10.691406 5.6875 -10.984375 C 6.132812 -11.273438 6.675781 -11.421875 7.3125 -11.421875 C 7.957031 -11.421875 8.445312 -11.3125 8.78125 -11.09375 L 8.296875 -8.640625 L 8.078125 -8.609375 C 7.890625 -8.679688 7.710938 -8.734375 7.546875 -8.765625 C 7.378906 -8.804688 7.171875 -8.828125 6.921875 -8.828125 C 6.128906 -8.828125 5.523438 -8.546875 5.109375 -7.984375 C 4.691406 -7.421875 4.484375 -6.523438 4.484375 -5.296875 L 4.484375 0 Z M 1.625 0 "/></g></g></g><g fill="#000000" fill-opacity="1"><g transform="translate(47.343214, 132.667837)"><g><path d="M 6.578125 0.21875 C 5.472656 0.21875 4.5 -0.0078125 3.65625 -0.46875 C 2.820312 -0.925781 2.171875 -1.59375 1.703125 -2.46875 C 1.242188 -3.351562 1.015625 -4.414062 1.015625 -5.65625 C 1.015625 -6.90625 1.242188 -7.96875 1.703125 -8.84375 C 2.171875 -9.726562 2.820312 -10.398438 3.65625 -10.859375 C 4.5 -11.316406 5.472656 -11.546875 6.578125 -11.546875 C 7.691406 -11.546875 8.664062 -11.316406 9.5 -10.859375 C 10.34375 -10.398438 10.992188 -9.726562 11.453125 -8.84375 C 11.921875 -7.96875 12.15625 -6.90625 12.15625 -5.65625 C 12.15625 -4.414062 11.921875 -3.351562 11.453125 -2.46875 C 10.992188 -1.59375 10.34375 -0.925781 9.5 -0.46875 C 8.664062 -0.0078125 7.691406 0.21875 6.578125 0.21875 Z M 6.578125 -2.203125 C 8.335938 -2.203125 9.21875 -3.351562 9.21875 -5.65625 C 9.21875 -6.851562 8.988281 -7.726562 8.53125 -8.28125 C 8.082031 -8.84375 7.429688 -9.125 6.578125 -9.125 C 4.816406 -9.125 3.9375 -7.96875 3.9375 -5.65625 C 3.9375 -3.351562 4.816406 -2.203125 6.578125 -2.203125 Z M 6.578125 -2.203125 "/></g></g></g><g fill="#000000" fill-opacity="1"><g transform="translate(60.504702, 132.667837)"><g><path d="M 5.296875 0.21875 C 4.523438 0.21875 3.816406 0.128906 3.171875 -0.046875 C 2.523438 -0.234375 1.972656 -0.484375 1.515625 -0.796875 C 1.066406 -1.117188 0.734375 -1.488281 0.515625 -1.90625 L 2.09375 -3.609375 L 2.3125 -3.609375 C 2.6875 -3.097656 3.128906 -2.710938 3.640625 -2.453125 C 4.160156 -2.203125 4.71875 -2.078125 5.3125 -2.078125 C 5.875 -2.078125 6.296875 -2.175781 6.578125 -2.375 C 6.859375 -2.582031 7 -2.867188 7 -3.234375 C 7 -3.523438 6.894531 -3.765625 6.6875 -3.953125 C 6.488281 -4.148438 6.160156 -4.304688 5.703125 -4.421875 L 4.203125 -4.78125 C 3.085938 -5.039062 2.269531 -5.445312 1.75 -6 C 1.226562 -6.550781 0.96875 -7.253906 0.96875 -8.109375 C 0.96875 -8.804688 1.144531 -9.414062 1.5 -9.9375 C 1.863281 -10.457031 2.375 -10.851562 3.03125 -11.125 C 3.6875 -11.40625 4.445312 -11.546875 5.3125 -11.546875 C 6.332031 -11.546875 7.175781 -11.394531 7.84375 -11.09375 C 8.519531 -10.800781 9.046875 -10.410156 9.421875 -9.921875 L 7.90625 -8.28125 L 7.703125 -8.28125 C 7.390625 -8.632812 7.035156 -8.890625 6.640625 -9.046875 C 6.242188 -9.210938 5.800781 -9.296875 5.3125 -9.296875 C 4.195312 -9.296875 3.640625 -8.945312 3.640625 -8.25 C 3.640625 -7.957031 3.742188 -7.71875 3.953125 -7.53125 C 4.160156 -7.351562 4.523438 -7.203125 5.046875 -7.078125 L 6.453125 -6.78125 C 7.597656 -6.53125 8.4375 -6.132812 8.96875 -5.59375 C 9.5 -5.050781 9.765625 -4.320312 9.765625 -3.40625 C 9.765625 -2.6875 9.585938 -2.050781 9.234375 -1.5 C 8.878906 -0.945312 8.363281 -0.519531 7.6875 -0.21875 C 7.019531 0.0703125 6.222656 0.21875 5.296875 0.21875 Z M 5.296875 0.21875 "/></g></g></g><g fill="#000000" fill-opacity="1"><g transform="translate(70.945606, 132.667837)"><g><path d="M 5.296875 0.21875 C 4.523438 0.21875 3.816406 0.128906 3.171875 -0.046875 C 2.523438 -0.234375 1.972656 -0.484375 1.515625 -0.796875 C 1.066406 -1.117188 0.734375 -1.488281 0.515625 -1.90625 L 2.09375 -3.609375 L 2.3125 -3.609375 C 2.6875 -3.097656 3.128906 -2.710938 3.640625 -2.453125 C 4.160156 -2.203125 4.71875 -2.078125 5.3125 -2.078125 C 5.875 -2.078125 6.296875 -2.175781 6.578125 -2.375 C 6.859375 -2.582031 7 -2.867188 7 -3.234375 C 7 -3.523438 6.894531 -3.765625 6.6875 -3.953125 C 6.488281 -4.148438 6.160156 -4.304688 5.703125 -4.421875 L 4.203125 -4.78125 C 3.085938 -5.039062 2.269531 -5.445312 1.75 -6 C 1.226562 -6.550781 0.96875 -7.253906 0.96875 -8.109375 C 0.96875 -8.804688 1.144531 -9.414062 1.5 -9.9375 C 1.863281 -10.457031 2.375 -10.851562 3.03125 -11.125 C 3.6875 -11.40625 4.445312 -11.546875 5.3125 -11.546875 C 6.332031 -11.546875 7.175781 -11.394531 7.84375 -11.09375 C 8.519531 -10.800781 9.046875 -10.410156 9.421875 -9.921875 L 7.90625 -8.28125 L 7.703125 -8.28125 C 7.390625 -8.632812 7.035156 -8.890625 6.640625 -9.046875 C 6.242188 -9.210938 5.800781 -9.296875 5.3125 -9.296875 C 4.195312 -9.296875 3.640625 -8.945312 3.640625 -8.25 C 3.640625 -7.957031 3.742188 -7.71875 3.953125 -7.53125 C 4.160156 -7.351562 4.523438 -7.203125 5.046875 -7.078125 L 6.453125 -6.78125 C 7.597656 -6.53125 8.4375 -6.132812 8.96875 -5.59375 C 9.5 -5.050781 9.765625 -4.320312 9.765625 -3.40625 C 9.765625 -2.6875 9.585938 -2.050781 9.234375 -1.5 C 8.878906 -0.945312 8.363281 -0.519531 7.6875 -0.21875 C 7.019531 0.0703125 6.222656 0.21875 5.296875 0.21875 Z M 5.296875 0.21875 "/></g></g></g><g fill="#000000" fill-opacity="1"><g transform="translate(81.386511, 132.667837)"><g/></g></g><g fill="#000000" fill-opacity="1"><g transform="translate(86.345174, 132.667837)"><g><path d="M 0.796875 0 L 0.796875 -2.453125 L 4.421875 -2.453125 L 4.421875 -11.796875 L 4.171875 -11.859375 C 3.660156 -11.609375 3.15625 -11.410156 2.65625 -11.265625 C 2.164062 -11.128906 1.601562 -11.019531 0.96875 -10.9375 L 0.96875 -13.46875 C 2.625 -13.820312 3.96875 -14.335938 5 -15.015625 L 7.359375 -15.015625 L 7.359375 -2.453125 L 10.59375 -2.453125 L 10.59375 0 Z M 0.796875 0 "/></g></g></g><g fill="#000000" fill-opacity="1"><g transform="translate(97.422593, 132.667837)"><g><path d="M 7.171875 0.21875 C 6.046875 0.21875 5.039062 -0.0390625 4.15625 -0.5625 C 3.269531 -1.082031 2.566406 -1.910156 2.046875 -3.046875 C 1.523438 -4.179688 1.265625 -5.617188 1.265625 -7.359375 C 1.265625 -9.140625 1.535156 -10.617188 2.078125 -11.796875 C 2.628906 -12.972656 3.378906 -13.835938 4.328125 -14.390625 C 5.273438 -14.953125 6.363281 -15.234375 7.59375 -15.234375 C 8.613281 -15.234375 9.488281 -15.082031 10.21875 -14.78125 C 10.957031 -14.488281 11.53125 -14.054688 11.9375 -13.484375 L 10.484375 -11.609375 L 10.234375 -11.609375 C 9.609375 -12.359375 8.726562 -12.734375 7.59375 -12.734375 C 5.457031 -12.734375 4.363281 -11.171875 4.3125 -8.046875 L 4.53125 -7.96875 C 4.875 -8.613281 5.332031 -9.101562 5.90625 -9.4375 C 6.476562 -9.78125 7.203125 -9.953125 8.078125 -9.953125 C 9.003906 -9.953125 9.804688 -9.753906 10.484375 -9.359375 C 11.160156 -8.960938 11.679688 -8.398438 12.046875 -7.671875 C 12.410156 -6.941406 12.59375 -6.070312 12.59375 -5.0625 C 12.59375 -3.96875 12.375 -3.019531 11.9375 -2.21875 C 11.5 -1.425781 10.875 -0.820312 10.0625 -0.40625 C 9.25 0.0078125 8.285156 0.21875 7.171875 0.21875 Z M 7.109375 -2.328125 C 7.890625 -2.328125 8.5 -2.550781 8.9375 -3 C 9.375 -3.457031 9.59375 -4.097656 9.59375 -4.921875 C 9.59375 -5.742188 9.375 -6.378906 8.9375 -6.828125 C 8.5 -7.285156 7.890625 -7.515625 7.109375 -7.515625 C 6.609375 -7.515625 6.164062 -7.40625 5.78125 -7.1875 C 5.40625 -6.976562 5.113281 -6.675781 4.90625 -6.28125 C 4.695312 -5.894531 4.59375 -5.441406 4.59375 -4.921875 C 4.59375 -4.117188 4.816406 -3.484375 5.265625 -3.015625 C 5.722656 -2.554688 6.335938 -2.328125 7.109375 -2.328125 Z M 7.109375 -2.328125 "/></g></g></g><g fill="#000000" fill-opacity="1"><g transform="translate(111.056334, 132.667837)"><g><path d="M 6.4375 0.21875 C 5.25 0.21875 4.238281 0.0351562 3.40625 -0.328125 C 2.582031 -0.703125 1.960938 -1.234375 1.546875 -1.921875 C 1.128906 -2.609375 0.921875 -3.421875 0.921875 -4.359375 C 0.921875 -5.222656 1.132812 -5.972656 1.5625 -6.609375 C 2 -7.242188 2.628906 -7.742188 3.453125 -8.109375 L 3.453125 -8.328125 C 2.867188 -8.691406 2.421875 -9.125 2.109375 -9.625 C 1.796875 -10.125 1.640625 -10.707031 1.640625 -11.375 C 1.640625 -12.132812 1.828125 -12.804688 2.203125 -13.390625 C 2.578125 -13.972656 3.125 -14.425781 3.84375 -14.75 C 4.5625 -15.070312 5.425781 -15.234375 6.4375 -15.234375 C 7.445312 -15.234375 8.3125 -15.070312 9.03125 -14.75 C 9.75 -14.425781 10.296875 -13.972656 10.671875 -13.390625 C 11.046875 -12.804688 11.234375 -12.132812 11.234375 -11.375 C 11.234375 -10.707031 11.078125 -10.125 10.765625 -9.625 C 10.453125 -9.132812 9.992188 -8.703125 9.390625 -8.328125 L 9.390625 -8.109375 C 10.265625 -7.765625 10.90625 -7.269531 11.3125 -6.625 C 11.726562 -5.976562 11.9375 -5.222656 11.9375 -4.359375 C 11.9375 -3.421875 11.726562 -2.609375 11.3125 -1.921875 C 10.894531 -1.234375 10.273438 -0.703125 9.453125 -0.328125 C 8.628906 0.0351562 7.625 0.21875 6.4375 0.21875 Z M 6.4375 -9.171875 C 7.03125 -9.171875 7.503906 -9.332031 7.859375 -9.65625 C 8.210938 -9.988281 8.390625 -10.445312 8.390625 -11.03125 C 8.390625 -11.613281 8.210938 -12.070312 7.859375 -12.40625 C 7.503906 -12.75 7.03125 -12.921875 6.4375 -12.921875 C 5.832031 -12.921875 5.351562 -12.753906 5 -12.421875 C 4.65625 -12.085938 4.484375 -11.625 4.484375 -11.03125 C 4.484375 -10.4375 4.65625 -9.976562 5 -9.65625 C 5.351562 -9.332031 5.832031 -9.171875 6.4375 -9.171875 Z M 6.4375 -2.3125 C 7.238281 -2.3125 7.859375 -2.507812 8.296875 -2.90625 C 8.734375 -3.3125 8.953125 -3.867188 8.953125 -4.578125 C 8.953125 -5.285156 8.734375 -5.835938 8.296875 -6.234375 C 7.859375 -6.640625 7.238281 -6.84375 6.4375 -6.84375 C 5.632812 -6.84375 5.007812 -6.640625 4.5625 -6.234375 C 4.125 -5.835938 3.90625 -5.285156 3.90625 -4.578125 C 3.90625 -3.867188 4.125 -3.3125 4.5625 -2.90625 C 5.007812 -2.507812 5.632812 -2.3125 6.4375 -2.3125 Z M 6.4375 -2.3125 "/></g></g></g><g fill="#000000" fill-opacity="1"><g transform="translate(123.930362, 132.667837)"><g><path d="M 6.765625 -8.6875 L 10.171875 -8.6875 L 10.171875 -6.328125 L 6.765625 -6.328125 L 6.765625 -2.875 L 4.296875 -2.875 L 4.296875 -6.328125 L 0.890625 -6.328125 L 0.890625 -8.6875 L 4.296875 -8.6875 L 4.296875 -12.140625 L 6.765625 -12.140625 Z M 6.765625 -8.6875 "/></g></g></g><g fill="#000000" fill-opacity="1"><g transform="translate(135.007782, 132.667837)"><g/></g></g><g fill="#000000" fill-opacity="1"><g transform="translate(139.966444, 132.667837)"><g><path d="M 5.1875 0.21875 C 3.914062 0.21875 2.972656 -0.128906 2.359375 -0.828125 C 1.753906 -1.523438 1.453125 -2.519531 1.453125 -3.8125 L 1.453125 -11.328125 L 4.296875 -11.328125 L 4.296875 -4.171875 C 4.296875 -3.484375 4.445312 -2.976562 4.75 -2.65625 C 5.050781 -2.34375 5.507812 -2.1875 6.125 -2.1875 C 6.914062 -2.1875 7.53125 -2.441406 7.96875 -2.953125 C 8.40625 -3.472656 8.625 -4.289062 8.625 -5.40625 L 8.625 -11.328125 L 11.46875 -11.328125 L 11.46875 0 L 8.734375 0 L 8.734375 -1.65625 L 8.515625 -1.71875 C 8.160156 -1.0625 7.71875 -0.570312 7.1875 -0.25 C 6.664062 0.0625 6 0.21875 5.1875 0.21875 Z M 5.1875 0.21875 "/></g></g></g><g fill="#000000" fill-opacity="1"><g transform="translate(153.066334, 132.667837)"><g><path d="M 1.625 0 L 1.625 -11.328125 L 4.359375 -11.328125 L 4.359375 -9.65625 L 4.578125 -9.609375 C 5.285156 -10.898438 6.429688 -11.546875 8.015625 -11.546875 C 9.316406 -11.546875 10.273438 -11.1875 10.890625 -10.46875 C 11.503906 -9.757812 11.8125 -8.722656 11.8125 -7.359375 L 11.8125 0 L 8.96875 0 L 8.96875 -7.015625 C 8.96875 -7.765625 8.816406 -8.304688 8.515625 -8.640625 C 8.210938 -8.972656 7.726562 -9.140625 7.0625 -9.140625 C 6.25 -9.140625 5.613281 -8.875 5.15625 -8.34375 C 4.707031 -7.820312 4.484375 -6.992188 4.484375 -5.859375 L 4.484375 0 Z M 1.625 0 "/></g></g></g><g fill="#000000" fill-opacity="1"><g transform="translate(166.330485, 132.667837)"><g><path d="M 3.046875 -12.6875 C 2.535156 -12.6875 2.117188 -12.835938 1.796875 -13.140625 C 1.472656 -13.453125 1.3125 -13.859375 1.3125 -14.359375 C 1.3125 -14.835938 1.472656 -15.234375 1.796875 -15.546875 C 2.117188 -15.859375 2.535156 -16.015625 3.046875 -16.015625 C 3.390625 -16.015625 3.691406 -15.941406 3.953125 -15.796875 C 4.222656 -15.660156 4.429688 -15.46875 4.578125 -15.21875 C 4.734375 -14.96875 4.8125 -14.679688 4.8125 -14.359375 C 4.8125 -14.035156 4.734375 -13.742188 4.578125 -13.484375 C 4.429688 -13.234375 4.222656 -13.035156 3.953125 -12.890625 C 3.691406 -12.753906 3.390625 -12.6875 3.046875 -12.6875 Z M 1.625 0 L 1.625 -11.328125 L 4.484375 -11.328125 L 4.484375 0 Z M 1.625 0 "/></g></g></g><g fill="#000000" fill-opacity="1"><g transform="translate(172.428709, 132.667837)"><g><path d="M 7.796875 0 L 4.40625 0 L 0.21875 -11.328125 L 3.1875 -11.328125 L 6 -3.25 L 6.25 -3.25 L 9.0625 -11.328125 L 11.96875 -11.328125 Z M 7.796875 0 "/></g></g></g><g fill="#000000" fill-opacity="1"><g transform="translate(184.604625, 132.667837)"><g><path d="M 11.1875 -5.015625 L 3.90625 -5.015625 C 3.988281 -4.035156 4.269531 -3.320312 4.75 -2.875 C 5.226562 -2.425781 5.882812 -2.203125 6.71875 -2.203125 C 7.363281 -2.203125 7.890625 -2.320312 8.296875 -2.5625 C 8.703125 -2.800781 9.023438 -3.171875 9.265625 -3.671875 L 9.484375 -3.671875 L 11.375 -2.453125 C 11.007812 -1.660156 10.453125 -1.015625 9.703125 -0.515625 C 8.953125 -0.0234375 7.957031 0.21875 6.71875 0.21875 C 5.539062 0.21875 4.523438 -0.00390625 3.671875 -0.453125 C 2.828125 -0.898438 2.171875 -1.5625 1.703125 -2.4375 C 1.242188 -3.320312 1.015625 -4.394531 1.015625 -5.65625 C 1.015625 -6.945312 1.253906 -8.03125 1.734375 -8.90625 C 2.222656 -9.789062 2.878906 -10.453125 3.703125 -10.890625 C 4.535156 -11.328125 5.472656 -11.546875 6.515625 -11.546875 C 8.109375 -11.546875 9.332031 -11.117188 10.1875 -10.265625 C 11.039062 -9.421875 11.46875 -8.175781 11.46875 -6.53125 C 11.46875 -5.9375 11.445312 -5.472656 11.40625 -5.140625 Z M 8.75 -6.859375 C 8.71875 -7.722656 8.515625 -8.347656 8.140625 -8.734375 C 7.773438 -9.128906 7.234375 -9.328125 6.515625 -9.328125 C 5.078125 -9.328125 4.226562 -8.503906 3.96875 -6.859375 Z M 8.75 -6.859375 "/></g></g></g><g fill="#000000" fill-opacity="1"><g transform="translate(196.91402, 132.667837)"><g><path d="M 1.625 0 L 1.625 -11.328125 L 4.390625 -11.328125 L 4.390625 -9.640625 L 4.609375 -9.609375 C 4.878906 -10.234375 5.238281 -10.691406 5.6875 -10.984375 C 6.132812 -11.273438 6.675781 -11.421875 7.3125 -11.421875 C 7.957031 -11.421875 8.445312 -11.3125 8.78125 -11.09375 L 8.296875 -8.640625 L 8.078125 -8.609375 C 7.890625 -8.679688 7.710938 -8.734375 7.546875 -8.765625 C 7.378906 -8.804688 7.171875 -8.828125 6.921875 -8.828125 C 6.128906 -8.828125 5.523438 -8.546875 5.109375 -7.984375 C 4.691406 -7.421875 4.484375 -6.523438 4.484375 -5.296875 L 4.484375 0 Z M 1.625 0 "/></g></g></g><g fill="#000000" fill-opacity="1"><g transform="translate(205.794447, 132.667837)"><g><path d="M 5.296875 0.21875 C 4.523438 0.21875 3.816406 0.128906 3.171875 -0.046875 C 2.523438 -0.234375 1.972656 -0.484375 1.515625 -0.796875 C 1.066406 -1.117188 0.734375 -1.488281 0.515625 -1.90625 L 2.09375 -3.609375 L 2.3125 -3.609375 C 2.6875 -3.097656 3.128906 -2.710938 3.640625 -2.453125 C 4.160156 -2.203125 4.71875 -2.078125 5.3125 -2.078125 C 5.875 -2.078125 6.296875 -2.175781 6.578125 -2.375 C 6.859375 -2.582031 7 -2.867188 7 -3.234375 C 7 -3.523438 6.894531 -3.765625 6.6875 -3.953125 C 6.488281 -4.148438 6.160156 -4.304688 5.703125 -4.421875 L 4.203125 -4.78125 C 3.085938 -5.039062 2.269531 -5.445312 1.75 -6 C 1.226562 -6.550781 0.96875 -7.253906 0.96875 -8.109375 C 0.96875 -8.804688 1.144531 -9.414062 1.5 -9.9375 C 1.863281 -10.457031 2.375 -10.851562 3.03125 -11.125 C 3.6875 -11.40625 4.445312 -11.546875 5.3125 -11.546875 C 6.332031 -11.546875 7.175781 -11.394531 7.84375 -11.09375 C 8.519531 -10.800781 9.046875 -10.410156 9.421875 -9.921875 L 7.90625 -8.28125 L 7.703125 -8.28125 C 7.390625 -8.632812 7.035156 -8.890625 6.640625 -9.046875 C 6.242188 -9.210938 5.800781 -9.296875 5.3125 -9.296875 C 4.195312 -9.296875 3.640625 -8.945312 3.640625 -8.25 C 3.640625 -7.957031 3.742188 -7.71875 3.953125 -7.53125 C 4.160156 -7.351562 4.523438 -7.203125 5.046875 -7.078125 L 6.453125 -6.78125 C 7.597656 -6.53125 8.4375 -6.132812 8.96875 -5.59375 C 9.5 -5.050781 9.765625 -4.320312 9.765625 -3.40625 C 9.765625 -2.6875 9.585938 -2.050781 9.234375 -1.5 C 8.878906 -0.945312 8.363281 -0.519531 7.6875 -0.21875 C 7.019531 0.0703125 6.222656 0.21875 5.296875 0.21875 Z M 5.296875 0.21875 "/></g></g></g><g fill="#000000" fill-opacity="1"><g transform="translate(216.235363, 132.667837)"><g><path d="M 3.046875 -12.6875 C 2.535156 -12.6875 2.117188 -12.835938 1.796875 -13.140625 C 1.472656 -13.453125 1.3125 -13.859375 1.3125 -14.359375 C 1.3125 -14.835938 1.472656 -15.234375 1.796875 -15.546875 C 2.117188 -15.859375 2.535156 -16.015625 3.046875 -16.015625 C 3.390625 -16.015625 3.691406 -15.941406 3.953125 -15.796875 C 4.222656 -15.660156 4.429688 -15.46875 4.578125 -15.21875 C 4.734375 -14.96875 4.8125 -14.679688 4.8125 -14.359375 C 4.8125 -14.035156 4.734375 -13.742188 4.578125 -13.484375 C 4.429688 -13.234375 4.222656 -13.035156 3.953125 -12.890625 C 3.691406 -12.753906 3.390625 -12.6875 3.046875 -12.6875 Z M 1.625 0 L 1.625 -11.328125 L 4.484375 -11.328125 L 4.484375 0 Z M 1.625 0 "/></g></g></g><g fill="#000000" fill-opacity="1"><g transform="translate(222.333576, 132.667837)"><g><path d="M 7.8125 -2.703125 L 8.546875 -0.59375 C 8.242188 -0.34375 7.859375 -0.144531 7.390625 0 C 6.929688 0.144531 6.40625 0.21875 5.8125 0.21875 C 4.582031 0.21875 3.648438 -0.113281 3.015625 -0.78125 C 2.378906 -1.445312 2.0625 -2.421875 2.0625 -3.703125 L 2.0625 -9.078125 L 0.34375 -9.078125 L 0.34375 -11.34375 L 2.0625 -11.34375 L 2.0625 -13.546875 L 4.90625 -14 L 4.90625 -11.34375 L 8.125 -11.34375 L 8.125 -9.078125 L 4.90625 -9.078125 L 4.90625 -3.90625 C 4.90625 -3.34375 5.019531 -2.929688 5.25 -2.671875 C 5.488281 -2.421875 5.832031 -2.296875 6.28125 -2.296875 C 6.78125 -2.296875 7.21875 -2.429688 7.59375 -2.703125 Z M 7.8125 -2.703125 "/></g></g></g><g fill="#000000" fill-opacity="1"><g transform="translate(231.131872, 132.667837)"><g><path d="M 3.046875 -12.6875 C 2.535156 -12.6875 2.117188 -12.835938 1.796875 -13.140625 C 1.472656 -13.453125 1.3125 -13.859375 1.3125 -14.359375 C 1.3125 -14.835938 1.472656 -15.234375 1.796875 -15.546875 C 2.117188 -15.859375 2.535156 -16.015625 3.046875 -16.015625 C 3.390625 -16.015625 3.691406 -15.941406 3.953125 -15.796875 C 4.222656 -15.660156 4.429688 -15.46875 4.578125 -15.21875 C 4.734375 -14.96875 4.8125 -14.679688 4.8125 -14.359375 C 4.8125 -14.035156 4.734375 -13.742188 4.578125 -13.484375 C 4.429688 -13.234375 4.222656 -13.035156 3.953125 -12.890625 C 3.691406 -12.753906 3.390625 -12.6875 3.046875 -12.6875 Z M 1.625 0 L 1.625 -11.328125 L 4.484375 -11.328125 L 4.484375 0 Z M 1.625 0 "/></g></g></g><g fill="#000000" fill-opacity="1"><g transform="translate(237.230086, 132.667837)"><g><path d="M 11.1875 -5.015625 L 3.90625 -5.015625 C 3.988281 -4.035156 4.269531 -3.320312 4.75 -2.875 C 5.226562 -2.425781 5.882812 -2.203125 6.71875 -2.203125 C 7.363281 -2.203125 7.890625 -2.320312 8.296875 -2.5625 C 8.703125 -2.800781 9.023438 -3.171875 9.265625 -3.671875 L 9.484375 -3.671875 L 11.375 -2.453125 C 11.007812 -1.660156 10.453125 -1.015625 9.703125 -0.515625 C 8.953125 -0.0234375 7.957031 0.21875 6.71875 0.21875 C 5.539062 0.21875 4.523438 -0.00390625 3.671875 -0.453125 C 2.828125 -0.898438 2.171875 -1.5625 1.703125 -2.4375 C 1.242188 -3.320312 1.015625 -4.394531 1.015625 -5.65625 C 1.015625 -6.945312 1.253906 -8.03125 1.734375 -8.90625 C 2.222656 -9.789062 2.878906 -10.453125 3.703125 -10.890625 C 4.535156 -11.328125 5.472656 -11.546875 6.515625 -11.546875 C 8.109375 -11.546875 9.332031 -11.117188 10.1875 -10.265625 C 11.039062 -9.421875 11.46875 -8.175781 11.46875 -6.53125 C 11.46875 -5.9375 11.445312 -5.472656 11.40625 -5.140625 Z M 8.75 -6.859375 C 8.71875 -7.722656 8.515625 -8.347656 8.140625 -8.734375 C 7.773438 -9.128906 7.234375 -9.328125 6.515625 -9.328125 C 5.078125 -9.328125 4.226562 -8.503906 3.96875 -6.859375 Z M 8.75 -6.859375 "/></g></g></g><g fill="#000000" fill-opacity="1"><g transform="translate(249.539469, 132.667837)"><g><path d="M 5.296875 0.21875 C 4.523438 0.21875 3.816406 0.128906 3.171875 -0.046875 C 2.523438 -0.234375 1.972656 -0.484375 1.515625 -0.796875 C 1.066406 -1.117188 0.734375 -1.488281 0.515625 -1.90625 L 2.09375 -3.609375 L 2.3125 -3.609375 C 2.6875 -3.097656 3.128906 -2.710938 3.640625 -2.453125 C 4.160156 -2.203125 4.71875 -2.078125 5.3125 -2.078125 C 5.875 -2.078125 6.296875 -2.175781 6.578125 -2.375 C 6.859375 -2.582031 7 -2.867188 7 -3.234375 C 7 -3.523438 6.894531 -3.765625 6.6875 -3.953125 C 6.488281 -4.148438 6.160156 -4.304688 5.703125 -4.421875 L 4.203125 -4.78125 C 3.085938 -5.039062 2.269531 -5.445312 1.75 -6 C 1.226562 -6.550781 0.96875 -7.253906 0.96875 -8.109375 C 0.96875 -8.804688 1.144531 -9.414062 1.5 -9.9375 C 1.863281 -10.457031 2.375 -10.851562 3.03125 -11.125 C 3.6875 -11.40625 4.445312 -11.546875 5.3125 -11.546875 C 6.332031 -11.546875 7.175781 -11.394531 7.84375 -11.09375 C 8.519531 -10.800781 9.046875 -10.410156 9.421875 -9.921875 L 7.90625 -8.28125 L 7.703125 -8.28125 C 7.390625 -8.632812 7.035156 -8.890625 6.640625 -9.046875 C 6.242188 -9.210938 5.800781 -9.296875 5.3125 -9.296875 C 4.195312 -9.296875 3.640625 -8.945312 3.640625 -8.25 C 3.640625 -7.957031 3.742188 -7.71875 3.953125 -7.53125 C 4.160156 -7.351562 4.523438 -7.203125 5.046875 -7.078125 L 6.453125 -6.78125 C 7.597656 -6.53125 8.4375 -6.132812 8.96875 -5.59375 C 9.5 -5.050781 9.765625 -4.320312 9.765625 -3.40625 C 9.765625 -2.6875 9.585938 -2.050781 9.234375 -1.5 C 8.878906 -0.945312 8.363281 -0.519531 7.6875 -0.21875 C 7.019531 0.0703125 6.222656 0.21875 5.296875 0.21875 Z M 5.296875 0.21875 "/></g></g></g><g fill="#000000" fill-opacity="1"><g transform="translate(259.980363, 132.667837)"><g/></g></g><g fill="#000000" fill-opacity="1"><g transform="translate(264.939026, 132.667837)"><g><path d="M 3.046875 -12.6875 C 2.535156 -12.6875 2.117188 -12.835938 1.796875 -13.140625 C 1.472656 -13.453125 1.3125 -13.859375 1.3125 -14.359375 C 1.3125 -14.835938 1.472656 -15.234375 1.796875 -15.546875 C 2.117188 -15.859375 2.535156 -16.015625 3.046875 -16.015625 C 3.390625 -16.015625 3.691406 -15.941406 3.953125 -15.796875 C 4.222656 -15.660156 4.429688 -15.46875 4.578125 -15.21875 C 4.734375 -14.96875 4.8125 -14.679688 4.8125 -14.359375 C 4.8125 -14.035156 4.734375 -13.742188 4.578125 -13.484375 C 4.429688 -13.234375 4.222656 -13.035156 3.953125 -12.890625 C 3.691406 -12.753906 3.390625 -12.6875 3.046875 -12.6875 Z M 1.625 0 L 1.625 -11.328125 L 4.484375 -11.328125 L 4.484375 0 Z M 1.625 0 "/></g></g></g><g fill="#000000" fill-opacity="1"><g transform="translate(271.037239, 132.667837)"><g><path d="M 1.625 0 L 1.625 -11.328125 L 4.359375 -11.328125 L 4.359375 -9.65625 L 4.578125 -9.609375 C 5.285156 -10.898438 6.429688 -11.546875 8.015625 -11.546875 C 9.316406 -11.546875 10.273438 -11.1875 10.890625 -10.46875 C 11.503906 -9.757812 11.8125 -8.722656 11.8125 -7.359375 L 11.8125 0 L 8.96875 0 L 8.96875 -7.015625 C 8.96875 -7.765625 8.816406 -8.304688 8.515625 -8.640625 C 8.210938 -8.972656 7.726562 -9.140625 7.0625 -9.140625 C 6.25 -9.140625 5.613281 -8.875 5.15625 -8.34375 C 4.707031 -7.820312 4.484375 -6.992188 4.484375 -5.859375 L 4.484375 0 Z M 1.625 0 "/></g></g></g><g fill="#000000" fill-opacity="1"><g transform="translate(284.30139, 132.667837)"><g/></g></g><g fill="#000000" fill-opacity="1"><g transform="translate(289.260053, 132.667837)"><g><path d="M 4.828125 0 L 1.953125 0 L 1.953125 -15.015625 L 5.34375 -15.015625 L 11.375 -5.34375 L 11.640625 -5.375 L 11.640625 -15.015625 L 14.5 -15.015625 L 14.5 0 L 11.453125 0 L 5.078125 -10.328125 L 4.828125 -10.296875 Z M 4.828125 0 "/></g></g></g><g fill="#000000" fill-opacity="1"><g transform="translate(305.71705, 132.667837)"><g><path d="M 3.046875 -12.6875 C 2.535156 -12.6875 2.117188 -12.835938 1.796875 -13.140625 C 1.472656 -13.453125 1.3125 -13.859375 1.3125 -14.359375 C 1.3125 -14.835938 1.472656 -15.234375 1.796875 -15.546875 C 2.117188 -15.859375 2.535156 -16.015625 3.046875 -16.015625 C 3.390625 -16.015625 3.691406 -15.941406 3.953125 -15.796875 C 4.222656 -15.660156 4.429688 -15.46875 4.578125 -15.21875 C 4.734375 -14.96875 4.8125 -14.679688 4.8125 -14.359375 C 4.8125 -14.035156 4.734375 -13.742188 4.578125 -13.484375 C 4.429688 -13.234375 4.222656 -13.035156 3.953125 -12.890625 C 3.691406 -12.753906 3.390625 -12.6875 3.046875 -12.6875 Z M 1.625 0 L 1.625 -11.328125 L 4.484375 -11.328125 L 4.484375 0 Z M 1.625 0 "/></g></g></g><g fill="#000000" fill-opacity="1"><g transform="translate(311.815285, 132.667837)"><g><path d="M 5.875 4.8125 C 4.007812 4.8125 2.628906 4.535156 1.734375 3.984375 C 0.847656 3.429688 0.40625 2.664062 0.40625 1.6875 C 0.40625 1.09375 0.59375 0.601562 0.96875 0.21875 C 1.351562 -0.15625 1.898438 -0.40625 2.609375 -0.53125 L 2.609375 -0.75 C 2.222656 -0.976562 1.945312 -1.234375 1.78125 -1.515625 C 1.613281 -1.804688 1.53125 -2.140625 1.53125 -2.515625 C 1.53125 -3.421875 2.125 -4.035156 3.3125 -4.359375 L 3.3125 -4.5625 C 2.695312 -4.914062 2.234375 -5.347656 1.921875 -5.859375 C 1.617188 -6.378906 1.46875 -7.007812 1.46875 -7.75 C 1.46875 -8.5 1.640625 -9.160156 1.984375 -9.734375 C 2.328125 -10.304688 2.832031 -10.75 3.5 -11.0625 C 4.175781 -11.382812 4.976562 -11.546875 5.90625 -11.546875 C 6.851562 -11.546875 7.601562 -11.378906 8.15625 -11.046875 C 8.507812 -11.554688 8.710938 -12.144531 8.765625 -12.8125 L 8.984375 -12.9375 L 11.03125 -12.4375 C 10.96875 -11.894531 10.804688 -11.441406 10.546875 -11.078125 C 10.296875 -10.710938 9.90625 -10.382812 9.375 -10.09375 L 9.375 -9.875 C 10.007812 -9.3125 10.328125 -8.523438 10.328125 -7.515625 C 10.328125 -6.816406 10.148438 -6.191406 9.796875 -5.640625 C 9.453125 -5.085938 8.945312 -4.648438 8.28125 -4.328125 C 7.613281 -4.003906 6.820312 -3.84375 5.90625 -3.84375 L 5.46875 -3.84375 C 5.195312 -3.863281 5.003906 -3.875 4.890625 -3.875 C 4.640625 -3.875 4.4375 -3.800781 4.28125 -3.65625 C 4.132812 -3.519531 4.0625 -3.34375 4.0625 -3.125 C 4.0625 -2.882812 4.15625 -2.695312 4.34375 -2.5625 C 4.539062 -2.425781 4.828125 -2.351562 5.203125 -2.34375 L 7.734375 -2.25 C 10.234375 -2.175781 11.484375 -1.097656 11.484375 0.984375 C 11.484375 1.710938 11.296875 2.363281 10.921875 2.9375 C 10.554688 3.507812 9.953125 3.960938 9.109375 4.296875 C 8.273438 4.640625 7.195312 4.8125 5.875 4.8125 Z M 5.90625 -5.828125 C 6.445312 -5.828125 6.875 -5.988281 7.1875 -6.3125 C 7.5 -6.632812 7.65625 -7.09375 7.65625 -7.6875 C 7.65625 -8.28125 7.5 -8.738281 7.1875 -9.0625 C 6.875 -9.382812 6.445312 -9.546875 5.90625 -9.546875 C 5.351562 -9.546875 4.925781 -9.382812 4.625 -9.0625 C 4.320312 -8.738281 4.171875 -8.28125 4.171875 -7.6875 C 4.171875 -7.082031 4.320312 -6.617188 4.625 -6.296875 C 4.925781 -5.984375 5.351562 -5.828125 5.90625 -5.828125 Z M 5.875 2.734375 C 6.84375 2.734375 7.546875 2.597656 7.984375 2.328125 C 8.429688 2.054688 8.65625 1.703125 8.65625 1.265625 C 8.65625 0.910156 8.539062 0.644531 8.3125 0.46875 C 8.09375 0.300781 7.734375 0.210938 7.234375 0.203125 L 5 0.109375 C 4.925781 0.109375 4.851562 0.101562 4.78125 0.09375 C 4.71875 0.0820312 4.65625 0.078125 4.59375 0.078125 C 4.113281 0.078125 3.75 0.179688 3.5 0.390625 C 3.25 0.597656 3.125 0.882812 3.125 1.25 C 3.125 1.726562 3.351562 2.09375 3.8125 2.34375 C 4.28125 2.601562 4.96875 2.734375 5.875 2.734375 Z M 5.875 2.734375 "/></g></g></g><g fill="#000000" fill-opacity="1"><g transform="translate(323.590818, 132.667837)"><g><path d="M 11.1875 -5.015625 L 3.90625 -5.015625 C 3.988281 -4.035156 4.269531 -3.320312 4.75 -2.875 C 5.226562 -2.425781 5.882812 -2.203125 6.71875 -2.203125 C 7.363281 -2.203125 7.890625 -2.320312 8.296875 -2.5625 C 8.703125 -2.800781 9.023438 -3.171875 9.265625 -3.671875 L 9.484375 -3.671875 L 11.375 -2.453125 C 11.007812 -1.660156 10.453125 -1.015625 9.703125 -0.515625 C 8.953125 -0.0234375 7.957031 0.21875 6.71875 0.21875 C 5.539062 0.21875 4.523438 -0.00390625 3.671875 -0.453125 C 2.828125 -0.898438 2.171875 -1.5625 1.703125 -2.4375 C 1.242188 -3.320312 1.015625 -4.394531 1.015625 -5.65625 C 1.015625 -6.945312 1.253906 -8.03125 1.734375 -8.90625 C 2.222656 -9.789062 2.878906 -10.453125 3.703125 -10.890625 C 4.535156 -11.328125 5.472656 -11.546875 6.515625 -11.546875 C 8.109375 -11.546875 9.332031 -11.117188 10.1875 -10.265625 C 11.039062 -9.421875 11.46875 -8.175781 11.46875 -6.53125 C 11.46875 -5.9375 11.445312 -5.472656 11.40625 -5.140625 Z M 8.75 -6.859375 C 8.71875 -7.722656 8.515625 -8.347656 8.140625 -8.734375 C 7.773438 -9.128906 7.234375 -9.328125 6.515625 -9.328125 C 5.078125 -9.328125 4.226562 -8.503906 3.96875 -6.859375 Z M 8.75 -6.859375 "/></g></g></g><g fill="#000000" fill-opacity="1"><g transform="translate(335.900202, 132.667837)"><g><path d="M 1.625 0 L 1.625 -11.328125 L 4.390625 -11.328125 L 4.390625 -9.640625 L 4.609375 -9.609375 C 4.878906 -10.234375 5.238281 -10.691406 5.6875 -10.984375 C 6.132812 -11.273438 6.675781 -11.421875 7.3125 -11.421875 C 7.957031 -11.421875 8.445312 -11.3125 8.78125 -11.09375 L 8.296875 -8.640625 L 8.078125 -8.609375 C 7.890625 -8.679688 7.710938 -8.734375 7.546875 -8.765625 C 7.378906 -8.804688 7.171875 -8.828125 6.921875 -8.828125 C 6.128906 -8.828125 5.523438 -8.546875 5.109375 -7.984375 C 4.691406 -7.421875 4.484375 -6.523438 4.484375 -5.296875 L 4.484375 0 Z M 1.625 0 "/></g></g></g><g fill="#000000" fill-opacity="1"><g transform="translate(344.780607, 132.667837)"><g><path d="M 3.046875 -12.6875 C 2.535156 -12.6875 2.117188 -12.835938 1.796875 -13.140625 C 1.472656 -13.453125 1.3125 -13.859375 1.3125 -14.359375 C 1.3125 -14.835938 1.472656 -15.234375 1.796875 -15.546875 C 2.117188 -15.859375 2.535156 -16.015625 3.046875 -16.015625 C 3.390625 -16.015625 3.691406 -15.941406 3.953125 -15.796875 C 4.222656 -15.660156 4.429688 -15.46875 4.578125 -15.21875 C 4.734375 -14.96875 4.8125 -14.679688 4.8125 -14.359375 C 4.8125 -14.035156 4.734375 -13.742188 4.578125 -13.484375 C 4.429688 -13.234375 4.222656 -13.035156 3.953125 -12.890625 C 3.691406 -12.753906 3.390625 -12.6875 3.046875 -12.6875 Z M 1.625 0 L 1.625 -11.328125 L 4.484375 -11.328125 L 4.484375 0 Z M 1.625 0 "/></g></g></g><g fill="#000000" fill-opacity="1"><g transform="translate(350.87882, 132.667837)"><g><path d="M 4.421875 0.21875 C 3.691406 0.21875 3.054688 0.0859375 2.515625 -0.171875 C 1.984375 -0.441406 1.570312 -0.835938 1.28125 -1.359375 C 1 -1.878906 0.859375 -2.5 0.859375 -3.21875 C 0.859375 -3.894531 1 -4.457031 1.28125 -4.90625 C 1.570312 -5.363281 2.019531 -5.738281 2.625 -6.03125 C 3.226562 -6.320312 4.015625 -6.546875 4.984375 -6.703125 C 5.660156 -6.816406 6.175781 -6.9375 6.53125 -7.0625 C 6.882812 -7.195312 7.125 -7.34375 7.25 -7.5 C 7.375 -7.664062 7.4375 -7.878906 7.4375 -8.140625 C 7.4375 -8.492188 7.304688 -8.765625 7.046875 -8.953125 C 6.796875 -9.148438 6.378906 -9.25 5.796875 -9.25 C 5.160156 -9.25 4.554688 -9.109375 3.984375 -8.828125 C 3.421875 -8.546875 2.929688 -8.175781 2.515625 -7.71875 L 2.3125 -7.71875 L 1.125 -9.515625 C 1.695312 -10.148438 2.394531 -10.644531 3.21875 -11 C 4.050781 -11.363281 4.957031 -11.546875 5.9375 -11.546875 C 7.4375 -11.546875 8.519531 -11.222656 9.1875 -10.578125 C 9.863281 -9.941406 10.203125 -9.039062 10.203125 -7.875 L 10.203125 -2.953125 C 10.203125 -2.453125 10.421875 -2.203125 10.859375 -2.203125 C 11.035156 -2.203125 11.207031 -2.234375 11.375 -2.296875 L 11.515625 -2.25 L 11.71875 -0.265625 C 11.5625 -0.160156 11.34375 -0.078125 11.0625 -0.015625 C 10.78125 0.046875 10.472656 0.078125 10.140625 0.078125 C 9.460938 0.078125 8.929688 -0.0507812 8.546875 -0.3125 C 8.171875 -0.570312 7.898438 -0.976562 7.734375 -1.53125 L 7.515625 -1.546875 C 6.960938 -0.367188 5.929688 0.21875 4.421875 0.21875 Z M 5.3125 -1.90625 C 5.976562 -1.90625 6.503906 -2.125 6.890625 -2.5625 C 7.285156 -3.007812 7.484375 -3.628906 7.484375 -4.421875 L 7.484375 -5.5625 L 7.296875 -5.609375 C 7.117188 -5.472656 6.890625 -5.359375 6.609375 -5.265625 C 6.335938 -5.171875 5.941406 -5.078125 5.421875 -4.984375 C 4.804688 -4.890625 4.363281 -4.71875 4.09375 -4.46875 C 3.820312 -4.21875 3.6875 -3.863281 3.6875 -3.40625 C 3.6875 -2.914062 3.828125 -2.539062 4.109375 -2.28125 C 4.398438 -2.03125 4.800781 -1.90625 5.3125 -1.90625 Z M 5.3125 -1.90625 "/></g></g></g></svg>