<svg xmlns="http://www.w3.org/2000/svg" xmlns:xlink="http://www.w3.org/1999/xlink" width="500" zoomAndPan="magnify" viewBox="0 0 375 149.999998" height="200" preserveAspectRatio="xMidYMid meet" version="1.0"><defs><g/><clipPath id="75a105f309"><path d="M 1.945312 25 L 365.695312 25 L 365.695312 93 L 1.945312 93 Z M 1.945312 25 " clip-rule="nonzero"/></clipPath><clipPath id="20b870bb95"><path d="M 21.585938 12.617188 L 123.421875 12.617188 L 123.421875 105.464844 L 21.585938 105.464844 Z M 21.585938 12.617188 " clip-rule="nonzero"/></clipPath></defs><g clip-path="url(#75a105f309)"><path fill="#8c52ff" d="M 348.980469 25.867188 L 18.613281 25.867188 C 9.410156 25.867188 1.945312 33.328125 1.945312 42.53125 L 1.945312 75.605469 C 1.945312 84.8125 9.410156 92.273438 18.613281 92.273438 L 348.980469 92.273438 C 358.183594 92.273438 365.648438 84.8125 365.648438 75.605469 L 365.648438 42.53125 C 365.648438 33.328125 358.183594 25.867188 348.980469 25.867188 " fill-opacity="1" fill-rule="nonzero"/></g><g clip-path="url(#20b870bb95)"><path fill="#fcb700" d="M 106.40625 12.617188 L 38.390625 12.617188 C 29.183594 12.617188 21.722656 20.082031 21.722656 29.285156 L 21.722656 88.855469 C 21.722656 98.058594 29.183594 105.523438 38.390625 105.523438 L 106.40625 105.523438 C 115.613281 105.523438 123.078125 98.058594 123.078125 88.855469 L 123.078125 29.285156 C 123.078125 20.082031 115.613281 12.617188 106.40625 12.617188 " fill-opacity="1" fill-rule="nonzero"/></g><path fill="#fcb228" d="M 172.429688 54.359375 L 160.988281 54.359375 C 160.582031 54.359375 160.21875 54.09375 160.089844 53.707031 L 156.558594 42.824219 C 156.273438 41.957031 155.046875 41.957031 154.761719 42.824219 L 151.226562 53.707031 C 151.101562 54.09375 150.738281 54.359375 150.328125 54.359375 L 138.890625 54.359375 C 137.972656 54.359375 137.59375 55.53125 138.332031 56.066406 L 147.589844 62.792969 C 147.917969 63.03125 148.058594 63.457031 147.933594 63.847656 L 144.394531 74.726562 C 144.113281 75.597656 145.109375 76.320312 145.847656 75.785156 L 155.105469 69.058594 C 155.433594 68.816406 155.882812 68.816406 156.214844 69.058594 L 165.46875 75.785156 C 166.210938 76.320312 167.203125 75.597656 166.921875 74.726562 L 163.386719 63.847656 C 163.261719 63.457031 163.398438 63.03125 163.730469 62.792969 L 172.984375 56.066406 C 173.726562 55.53125 173.34375 54.359375 172.429688 54.359375 " fill-opacity="1" fill-rule="nonzero"/><path fill="#fcb228" d="M 216.167969 54.359375 L 204.726562 54.359375 C 204.316406 54.359375 203.953125 54.09375 203.828125 53.707031 L 200.292969 42.824219 C 200.011719 41.957031 198.78125 41.957031 198.5 42.824219 L 194.960938 53.707031 C 194.835938 54.09375 194.472656 54.359375 194.0625 54.359375 L 182.625 54.359375 C 181.710938 54.359375 181.328125 55.53125 182.066406 56.066406 L 191.324219 62.792969 C 191.65625 63.03125 191.792969 63.457031 191.667969 63.847656 L 188.132812 74.726562 C 187.847656 75.597656 188.84375 76.320312 189.582031 75.785156 L 198.839844 69.058594 C 199.171875 68.816406 199.617188 68.816406 199.949219 69.058594 L 209.207031 75.785156 C 209.945312 76.320312 210.9375 75.597656 210.65625 74.726562 L 207.121094 63.847656 C 206.996094 63.457031 207.132812 63.03125 207.464844 62.792969 L 216.722656 56.066406 C 217.460938 55.53125 217.078125 54.359375 216.167969 54.359375 " fill-opacity="1" fill-rule="nonzero"/><path fill="#fcb228" d="M 259.902344 54.359375 L 248.460938 54.359375 C 248.054688 54.359375 247.691406 54.09375 247.5625 53.707031 L 244.027344 42.824219 C 243.746094 41.957031 242.515625 41.957031 242.234375 42.824219 L 238.695312 53.707031 C 238.570312 54.09375 238.207031 54.359375 237.800781 54.359375 L 226.359375 54.359375 C 225.445312 54.359375 225.0625 55.53125 225.804688 56.066406 L 235.058594 62.792969 C 235.390625 63.03125 235.527344 63.457031 235.402344 63.847656 L 231.867188 74.726562 C 231.585938 75.597656 232.578125 76.320312 233.320312 75.785156 L 242.574219 69.058594 C 242.90625 68.816406 243.355469 68.816406 243.683594 69.058594 L 252.941406 75.785156 C 253.679688 76.320312 254.675781 75.597656 254.394531 74.726562 L 250.859375 63.847656 C 250.730469 63.457031 250.871094 63.03125 251.199219 62.792969 L 260.457031 56.066406 C 261.195312 55.53125 260.816406 54.359375 259.902344 54.359375 " fill-opacity="1" fill-rule="nonzero"/><path fill="#fcb228" d="M 303.636719 54.359375 L 292.195312 54.359375 C 291.789062 54.359375 291.425781 54.09375 291.296875 53.707031 L 287.761719 42.824219 C 287.480469 41.957031 286.25 41.957031 285.96875 42.824219 L 282.433594 53.707031 C 282.308594 54.09375 281.945312 54.359375 281.535156 54.359375 L 270.09375 54.359375 C 269.179688 54.359375 268.800781 55.53125 269.539062 56.066406 L 278.796875 62.792969 C 279.128906 63.03125 279.265625 63.457031 279.140625 63.847656 L 275.605469 74.726562 C 275.320312 75.597656 276.316406 76.320312 277.054688 75.785156 L 286.3125 69.058594 C 286.644531 68.816406 287.089844 68.816406 287.421875 69.058594 L 296.675781 75.785156 C 297.414062 76.320312 298.414062 75.597656 298.128906 74.726562 L 294.59375 63.847656 C 294.46875 63.457031 294.605469 63.03125 294.933594 62.792969 L 304.191406 56.066406 C 304.929688 55.53125 304.554688 54.359375 303.636719 54.359375 " fill-opacity="1" fill-rule="nonzero"/><path fill="#fcb228" d="M 347.375 54.359375 L 335.933594 54.359375 C 335.523438 54.359375 335.160156 54.09375 335.035156 53.707031 L 331.5 42.824219 C 331.214844 41.957031 329.988281 41.957031 329.707031 42.824219 L 326.171875 53.707031 C 326.042969 54.09375 325.683594 54.359375 325.273438 54.359375 L 313.828125 54.359375 C 312.917969 54.359375 312.539062 55.53125 313.277344 56.066406 L 322.535156 62.792969 C 322.863281 63.03125 323 63.457031 322.875 63.847656 L 319.339844 74.726562 C 319.054688 75.597656 320.054688 76.320312 320.792969 75.785156 L 330.046875 69.058594 C 330.378906 68.816406 330.828125 68.816406 331.15625 69.058594 L 340.410156 75.785156 C 341.152344 76.320312 342.148438 75.597656 341.863281 74.726562 L 338.328125 63.847656 C 338.203125 63.457031 338.339844 63.03125 338.671875 62.792969 L 347.925781 56.066406 C 348.664062 55.53125 348.289062 54.359375 347.375 54.359375 " fill-opacity="1" fill-rule="nonzero"/><path fill="#e6a600" d="M 113.050781 59.070312 C 113.050781 80.0625 94.847656 97.078125 72.398438 97.078125 C 49.945312 97.078125 31.746094 80.0625 31.746094 59.070312 C 31.746094 38.078125 49.945312 21.058594 72.398438 21.058594 C 94.847656 21.058594 113.050781 38.078125 113.050781 59.070312 " fill-opacity="1" fill-rule="nonzero"/><path fill="#000000" d="M 72.417969 66.820312 C 70.234375 66.820312 68.648438 68.460938 68.648438 70.71875 C 68.648438 72.945312 70.25 74.621094 72.375 74.621094 C 74.5625 74.621094 76.148438 72.980469 76.148438 70.71875 C 76.148438 68.460938 74.582031 66.820312 72.417969 66.820312 " fill-opacity="1" fill-rule="nonzero"/><path fill="#000000" d="M 53.675781 69.167969 C 51.457031 69.167969 49.421875 68.433594 48.359375 67.800781 L 47.0625 67.03125 L 45.359375 72.210938 L 46.148438 72.71875 C 47.570312 73.636719 50.308594 74.621094 53.71875 74.621094 C 60.402344 74.621094 65.253906 70.125 65.253906 63.933594 C 65.253906 60.390625 63.585938 57.410156 60.699219 55.769531 C 58.882812 54.679688 56.601562 54.101562 54.101562 54.101562 C 53.789062 54.101562 53.515625 54.113281 53.269531 54.125 L 53.949219 49.570312 L 64.699219 49.570312 L 64.699219 43.992188 L 49.160156 43.992188 L 47.015625 59.910156 L 48.792969 59.691406 C 49.765625 59.566406 50.871094 59.429688 52.265625 59.429688 C 56.71875 59.429688 58.996094 61.09375 59.035156 64.359375 C 59.035156 67.664062 56.253906 69.167969 53.675781 69.167969 " fill-opacity="1" fill-rule="nonzero"/><path fill="#000000" d="M 88.835938 48.84375 C 92.683594 48.84375 93.257812 55.171875 93.257812 58.941406 C 93.257812 62.054688 92.824219 69.296875 88.792969 69.296875 C 86.066406 69.296875 84.375 65.425781 84.375 59.199219 C 84.375 52.910156 86.125 48.84375 88.835938 48.84375 Z M 88.582031 74.621094 C 95.480469 74.621094 99.4375 68.84375 99.4375 58.773438 C 99.4375 49.222656 95.554688 43.523438 89.050781 43.523438 C 82.457031 43.523438 78.195312 49.65625 78.195312 59.167969 C 78.285156 68.699219 82.265625 74.621094 88.582031 74.621094 " fill-opacity="1" fill-rule="nonzero"/><g fill="#000000" fill-opacity="1"><g transform="translate(9.719954, 129.97023)"><g><path d="M 14.296875 0 L 11.203125 0 L 10.078125 -3.4375 L 4.375 -3.4375 L 3.25 0 L 0.21875 0 L 5.375 -14.90625 L 9.15625 -14.90625 Z M 7.078125 -11.796875 L 5.171875 -5.90625 L 9.265625 -5.90625 L 7.34375 -11.796875 Z M 7.078125 -11.796875 "/></g></g></g><g fill="#000000" fill-opacity="1"><g transform="translate(24.244481, 129.97023)"><g><path d="M 6.546875 0.21875 C 5.460938 0.21875 4.503906 -0.00390625 3.671875 -0.453125 C 2.835938 -0.910156 2.1875 -1.578125 1.71875 -2.453125 C 1.25 -3.328125 1.015625 -4.378906 1.015625 -5.609375 C 1.015625 -6.847656 1.25 -7.90625 1.71875 -8.78125 C 2.1875 -9.65625 2.832031 -10.316406 3.65625 -10.765625 C 4.488281 -11.222656 5.4375 -11.453125 6.5 -11.453125 C 8.875 -11.453125 10.394531 -10.59375 11.0625 -8.875 L 9.125 -7.484375 L 8.90625 -7.484375 C 8.675781 -8.015625 8.375 -8.410156 8 -8.671875 C 7.632812 -8.929688 7.132812 -9.0625 6.5 -9.0625 C 5.6875 -9.0625 5.050781 -8.78125 4.59375 -8.21875 C 4.144531 -7.65625 3.921875 -6.785156 3.921875 -5.609375 C 3.921875 -4.460938 4.148438 -3.601562 4.609375 -3.03125 C 5.066406 -2.46875 5.710938 -2.1875 6.546875 -2.1875 C 7.160156 -2.1875 7.679688 -2.347656 8.109375 -2.671875 C 8.535156 -3.003906 8.835938 -3.476562 9.015625 -4.09375 L 9.234375 -4.125 L 11.25 -3.015625 C 10.957031 -2.066406 10.425781 -1.289062 9.65625 -0.6875 C 8.882812 -0.0820312 7.847656 0.21875 6.546875 0.21875 Z M 6.546875 0.21875 "/></g></g></g><g fill="#000000" fill-opacity="1"><g transform="translate(35.833526, 129.97023)"><g><path d="M 1.625 0 L 1.625 -11.25 L 4.359375 -11.25 L 4.359375 -9.578125 L 4.578125 -9.53125 C 4.847656 -10.15625 5.203125 -10.613281 5.640625 -10.90625 C 6.085938 -11.195312 6.625 -11.34375 7.25 -11.34375 C 7.894531 -11.34375 8.382812 -11.234375 8.71875 -11.015625 L 8.234375 -8.578125 L 8.015625 -8.546875 C 7.835938 -8.617188 7.660156 -8.671875 7.484375 -8.703125 C 7.316406 -8.734375 7.113281 -8.75 6.875 -8.75 C 6.082031 -8.75 5.476562 -8.472656 5.0625 -7.921875 C 4.644531 -7.367188 4.4375 -6.484375 4.4375 -5.265625 L 4.4375 0 Z M 1.625 0 "/></g></g></g><g fill="#000000" fill-opacity="1"><g transform="translate(44.65017, 129.97023)"><g><path d="M 6.53125 0.21875 C 5.425781 0.21875 4.457031 -0.00390625 3.625 -0.453125 C 2.800781 -0.910156 2.160156 -1.578125 1.703125 -2.453125 C 1.242188 -3.328125 1.015625 -4.378906 1.015625 -5.609375 C 1.015625 -6.847656 1.242188 -7.90625 1.703125 -8.78125 C 2.160156 -9.65625 2.800781 -10.316406 3.625 -10.765625 C 4.457031 -11.222656 5.425781 -11.453125 6.53125 -11.453125 C 7.632812 -11.453125 8.601562 -11.222656 9.4375 -10.765625 C 10.269531 -10.316406 10.914062 -9.65625 11.375 -8.78125 C 11.832031 -7.90625 12.0625 -6.847656 12.0625 -5.609375 C 12.0625 -4.378906 11.832031 -3.328125 11.375 -2.453125 C 10.914062 -1.578125 10.269531 -0.910156 9.4375 -0.453125 C 8.601562 -0.00390625 7.632812 0.21875 6.53125 0.21875 Z M 6.53125 -2.1875 C 8.28125 -2.1875 9.15625 -3.328125 9.15625 -5.609375 C 9.15625 -6.804688 8.929688 -7.679688 8.484375 -8.234375 C 8.035156 -8.785156 7.382812 -9.0625 6.53125 -9.0625 C 4.789062 -9.0625 3.921875 -7.910156 3.921875 -5.609375 C 3.921875 -3.328125 4.789062 -2.1875 6.53125 -2.1875 Z M 6.53125 -2.1875 "/></g></g></g><g fill="#000000" fill-opacity="1"><g transform="translate(57.717143, 129.97023)"><g><path d="M 5.265625 0.21875 C 4.492188 0.21875 3.785156 0.128906 3.140625 -0.046875 C 2.503906 -0.234375 1.957031 -0.484375 1.5 -0.796875 C 1.050781 -1.117188 0.722656 -1.484375 0.515625 -1.890625 L 2.078125 -3.578125 L 2.296875 -3.578125 C 2.671875 -3.078125 3.113281 -2.695312 3.625 -2.4375 C 4.132812 -2.1875 4.6875 -2.0625 5.28125 -2.0625 C 5.832031 -2.0625 6.242188 -2.160156 6.515625 -2.359375 C 6.796875 -2.554688 6.9375 -2.835938 6.9375 -3.203125 C 6.9375 -3.492188 6.835938 -3.734375 6.640625 -3.921875 C 6.441406 -4.117188 6.117188 -4.273438 5.671875 -4.390625 L 4.171875 -4.734375 C 3.054688 -5.003906 2.242188 -5.410156 1.734375 -5.953125 C 1.222656 -6.503906 0.96875 -7.203125 0.96875 -8.046875 C 0.96875 -8.742188 1.144531 -9.347656 1.5 -9.859375 C 1.851562 -10.378906 2.351562 -10.773438 3 -11.046875 C 3.65625 -11.316406 4.414062 -11.453125 5.28125 -11.453125 C 6.289062 -11.453125 7.128906 -11.304688 7.796875 -11.015625 C 8.460938 -10.722656 8.984375 -10.332031 9.359375 -9.84375 L 7.84375 -8.21875 L 7.640625 -8.21875 C 7.328125 -8.570312 6.972656 -8.828125 6.578125 -8.984375 C 6.191406 -9.148438 5.757812 -9.234375 5.28125 -9.234375 C 4.164062 -9.234375 3.609375 -8.882812 3.609375 -8.1875 C 3.609375 -7.894531 3.710938 -7.65625 3.921875 -7.46875 C 4.128906 -7.289062 4.492188 -7.144531 5.015625 -7.03125 L 6.40625 -6.734375 C 7.539062 -6.484375 8.367188 -6.085938 8.890625 -5.546875 C 9.421875 -5.003906 9.6875 -4.28125 9.6875 -3.375 C 9.6875 -2.65625 9.507812 -2.023438 9.15625 -1.484375 C 8.8125 -0.941406 8.304688 -0.519531 7.640625 -0.21875 C 6.972656 0.0703125 6.179688 0.21875 5.265625 0.21875 Z M 5.265625 0.21875 "/></g></g></g><g fill="#000000" fill-opacity="1"><g transform="translate(68.08307, 129.97023)"><g><path d="M 5.265625 0.21875 C 4.492188 0.21875 3.785156 0.128906 3.140625 -0.046875 C 2.503906 -0.234375 1.957031 -0.484375 1.5 -0.796875 C 1.050781 -1.117188 0.722656 -1.484375 0.515625 -1.890625 L 2.078125 -3.578125 L 2.296875 -3.578125 C 2.671875 -3.078125 3.113281 -2.695312 3.625 -2.4375 C 4.132812 -2.1875 4.6875 -2.0625 5.28125 -2.0625 C 5.832031 -2.0625 6.242188 -2.160156 6.515625 -2.359375 C 6.796875 -2.554688 6.9375 -2.835938 6.9375 -3.203125 C 6.9375 -3.492188 6.835938 -3.734375 6.640625 -3.921875 C 6.441406 -4.117188 6.117188 -4.273438 5.671875 -4.390625 L 4.171875 -4.734375 C 3.054688 -5.003906 2.242188 -5.410156 1.734375 -5.953125 C 1.222656 -6.503906 0.96875 -7.203125 0.96875 -8.046875 C 0.96875 -8.742188 1.144531 -9.347656 1.5 -9.859375 C 1.851562 -10.378906 2.351562 -10.773438 3 -11.046875 C 3.65625 -11.316406 4.414062 -11.453125 5.28125 -11.453125 C 6.289062 -11.453125 7.128906 -11.304688 7.796875 -11.015625 C 8.460938 -10.722656 8.984375 -10.332031 9.359375 -9.84375 L 7.84375 -8.21875 L 7.640625 -8.21875 C 7.328125 -8.570312 6.972656 -8.828125 6.578125 -8.984375 C 6.191406 -9.148438 5.757812 -9.234375 5.28125 -9.234375 C 4.164062 -9.234375 3.609375 -8.882812 3.609375 -8.1875 C 3.609375 -7.894531 3.710938 -7.65625 3.921875 -7.46875 C 4.128906 -7.289062 4.492188 -7.144531 5.015625 -7.03125 L 6.40625 -6.734375 C 7.539062 -6.484375 8.367188 -6.085938 8.890625 -5.546875 C 9.421875 -5.003906 9.6875 -4.28125 9.6875 -3.375 C 9.6875 -2.65625 9.507812 -2.023438 9.15625 -1.484375 C 8.8125 -0.941406 8.304688 -0.519531 7.640625 -0.21875 C 6.972656 0.0703125 6.179688 0.21875 5.265625 0.21875 Z M 5.265625 0.21875 "/></g></g></g><g fill="#000000" fill-opacity="1"><g transform="translate(78.448997, 129.97023)"><g/></g></g><g fill="#000000" fill-opacity="1"><g transform="translate(83.372051, 129.97023)"><g><path d="M 0.78125 0 L 0.78125 -2.4375 L 4.390625 -2.4375 L 4.390625 -11.71875 L 4.15625 -11.765625 C 3.644531 -11.523438 3.140625 -11.332031 2.640625 -11.1875 C 2.148438 -11.050781 1.585938 -10.941406 0.953125 -10.859375 L 0.953125 -13.375 C 2.609375 -13.71875 3.945312 -14.226562 4.96875 -14.90625 L 7.296875 -14.90625 L 7.296875 -2.4375 L 10.515625 -2.4375 L 10.515625 0 Z M 0.78125 0 "/></g></g></g><g fill="#000000" fill-opacity="1"><g transform="translate(94.369922, 129.97023)"><g><path d="M 7.125 0.21875 C 6 0.21875 4.992188 -0.0351562 4.109375 -0.546875 C 3.234375 -1.066406 2.535156 -1.890625 2.015625 -3.015625 C 1.503906 -4.140625 1.25 -5.570312 1.25 -7.3125 C 1.25 -9.070312 1.519531 -10.535156 2.0625 -11.703125 C 2.613281 -12.867188 3.359375 -13.726562 4.296875 -14.28125 C 5.234375 -14.832031 6.3125 -15.109375 7.53125 -15.109375 C 8.539062 -15.109375 9.410156 -14.960938 10.140625 -14.671875 C 10.878906 -14.378906 11.453125 -13.953125 11.859375 -13.390625 L 10.40625 -11.53125 L 10.15625 -11.53125 C 9.53125 -12.269531 8.65625 -12.640625 7.53125 -12.640625 C 5.414062 -12.640625 4.332031 -11.085938 4.28125 -7.984375 L 4.5 -7.90625 C 4.84375 -8.550781 5.296875 -9.039062 5.859375 -9.375 C 6.429688 -9.707031 7.148438 -9.875 8.015625 -9.875 C 8.929688 -9.875 9.726562 -9.675781 10.40625 -9.28125 C 11.082031 -8.894531 11.597656 -8.335938 11.953125 -7.609375 C 12.316406 -6.890625 12.5 -6.03125 12.5 -5.03125 C 12.5 -3.9375 12.28125 -2.992188 11.84375 -2.203125 C 11.414062 -1.421875 10.796875 -0.820312 9.984375 -0.40625 C 9.179688 0.0078125 8.226562 0.21875 7.125 0.21875 Z M 7.0625 -2.296875 C 7.832031 -2.296875 8.429688 -2.519531 8.859375 -2.96875 C 9.296875 -3.425781 9.515625 -4.0625 9.515625 -4.875 C 9.515625 -5.695312 9.296875 -6.332031 8.859375 -6.78125 C 8.429688 -7.238281 7.832031 -7.46875 7.0625 -7.46875 C 6.5625 -7.46875 6.117188 -7.359375 5.734375 -7.140625 C 5.359375 -6.929688 5.066406 -6.632812 4.859375 -6.25 C 4.660156 -5.863281 4.5625 -5.40625 4.5625 -4.875 C 4.5625 -4.082031 4.785156 -3.453125 5.234375 -2.984375 C 5.679688 -2.523438 6.289062 -2.296875 7.0625 -2.296875 Z M 7.0625 -2.296875 "/></g></g></g><g fill="#000000" fill-opacity="1"><g transform="translate(107.905757, 129.97023)"><g><path d="M 6.390625 0.21875 C 5.210938 0.21875 4.210938 0.0351562 3.390625 -0.328125 C 2.566406 -0.703125 1.945312 -1.226562 1.53125 -1.90625 C 1.125 -2.582031 0.921875 -3.390625 0.921875 -4.328125 C 0.921875 -5.179688 1.132812 -5.925781 1.5625 -6.5625 C 1.988281 -7.195312 2.613281 -7.691406 3.4375 -8.046875 L 3.4375 -8.265625 C 2.851562 -8.628906 2.40625 -9.054688 2.09375 -9.546875 C 1.78125 -10.046875 1.625 -10.628906 1.625 -11.296875 C 1.625 -12.046875 1.804688 -12.707031 2.171875 -13.28125 C 2.546875 -13.863281 3.09375 -14.3125 3.8125 -14.625 C 4.53125 -14.945312 5.390625 -15.109375 6.390625 -15.109375 C 7.390625 -15.109375 8.242188 -14.945312 8.953125 -14.625 C 9.671875 -14.3125 10.21875 -13.863281 10.59375 -13.28125 C 10.96875 -12.707031 11.15625 -12.046875 11.15625 -11.296875 C 11.15625 -10.628906 11 -10.046875 10.6875 -9.546875 C 10.375 -9.054688 9.921875 -8.628906 9.328125 -8.265625 L 9.328125 -8.046875 C 10.191406 -7.703125 10.828125 -7.207031 11.234375 -6.5625 C 11.648438 -5.925781 11.859375 -5.179688 11.859375 -4.328125 C 11.859375 -3.390625 11.648438 -2.582031 11.234375 -1.90625 C 10.816406 -1.226562 10.203125 -0.703125 9.390625 -0.328125 C 8.578125 0.0351562 7.578125 0.21875 6.390625 0.21875 Z M 6.390625 -9.109375 C 6.984375 -9.109375 7.453125 -9.269531 7.796875 -9.59375 C 8.148438 -9.914062 8.328125 -10.367188 8.328125 -10.953125 C 8.328125 -11.535156 8.148438 -11.992188 7.796875 -12.328125 C 7.453125 -12.660156 6.984375 -12.828125 6.390625 -12.828125 C 5.785156 -12.828125 5.304688 -12.660156 4.953125 -12.328125 C 4.609375 -11.992188 4.4375 -11.535156 4.4375 -10.953125 C 4.4375 -10.367188 4.609375 -9.914062 4.953125 -9.59375 C 5.304688 -9.269531 5.785156 -9.109375 6.390625 -9.109375 Z M 6.390625 -2.296875 C 7.179688 -2.296875 7.796875 -2.492188 8.234375 -2.890625 C 8.671875 -3.285156 8.890625 -3.835938 8.890625 -4.546875 C 8.890625 -5.253906 8.671875 -5.804688 8.234375 -6.203125 C 7.796875 -6.597656 7.179688 -6.796875 6.390625 -6.796875 C 5.585938 -6.796875 4.96875 -6.597656 4.53125 -6.203125 C 4.101562 -5.804688 3.890625 -5.253906 3.890625 -4.546875 C 3.890625 -3.835938 4.101562 -3.285156 4.53125 -2.890625 C 4.96875 -2.492188 5.585938 -2.296875 6.390625 -2.296875 Z M 6.390625 -2.296875 "/></g></g></g><g fill="#000000" fill-opacity="1"><g transform="translate(120.687335, 129.97023)"><g><path d="M 6.71875 -8.625 L 10.09375 -8.625 L 10.09375 -6.28125 L 6.71875 -6.28125 L 6.71875 -2.859375 L 4.265625 -2.859375 L 4.265625 -6.28125 L 0.890625 -6.28125 L 0.890625 -8.625 L 4.265625 -8.625 L 4.265625 -12.046875 L 6.71875 -12.046875 Z M 6.71875 -8.625 "/></g></g></g><g fill="#000000" fill-opacity="1"><g transform="translate(131.685206, 129.97023)"><g/></g></g><g fill="#000000" fill-opacity="1"><g transform="translate(136.60826, 129.97023)"><g><path d="M 5.140625 0.21875 C 3.878906 0.21875 2.945312 -0.125 2.34375 -0.8125 C 1.75 -1.507812 1.453125 -2.503906 1.453125 -3.796875 L 1.453125 -11.25 L 4.265625 -11.25 L 4.265625 -4.15625 C 4.265625 -3.46875 4.410156 -2.960938 4.703125 -2.640625 C 5.003906 -2.328125 5.460938 -2.171875 6.078125 -2.171875 C 6.859375 -2.171875 7.46875 -2.425781 7.90625 -2.9375 C 8.34375 -3.445312 8.5625 -4.253906 8.5625 -5.359375 L 8.5625 -11.25 L 11.390625 -11.25 L 11.390625 0 L 8.671875 0 L 8.671875 -1.65625 L 8.453125 -1.703125 C 8.097656 -1.054688 7.660156 -0.570312 7.140625 -0.25 C 6.617188 0.0625 5.953125 0.21875 5.140625 0.21875 Z M 5.140625 0.21875 "/></g></g></g><g fill="#000000" fill-opacity="1"><g transform="translate(149.614078, 129.97023)"><g><path d="M 1.625 0 L 1.625 -11.25 L 4.328125 -11.25 L 4.328125 -9.59375 L 4.546875 -9.546875 C 5.242188 -10.816406 6.378906 -11.453125 7.953125 -11.453125 C 9.242188 -11.453125 10.191406 -11.097656 10.796875 -10.390625 C 11.410156 -9.691406 11.71875 -8.664062 11.71875 -7.3125 L 11.71875 0 L 8.890625 0 L 8.890625 -6.96875 C 8.890625 -7.707031 8.738281 -8.242188 8.4375 -8.578125 C 8.144531 -8.910156 7.671875 -9.078125 7.015625 -9.078125 C 6.203125 -9.078125 5.566406 -8.8125 5.109375 -8.28125 C 4.660156 -7.757812 4.4375 -6.9375 4.4375 -5.8125 L 4.4375 0 Z M 1.625 0 "/></g></g></g><g fill="#000000" fill-opacity="1"><g transform="translate(162.782977, 129.97023)"><g><path d="M 3.03125 -12.59375 C 2.519531 -12.59375 2.101562 -12.742188 1.78125 -13.046875 C 1.46875 -13.359375 1.3125 -13.757812 1.3125 -14.25 C 1.3125 -14.726562 1.46875 -15.125 1.78125 -15.4375 C 2.101562 -15.75 2.519531 -15.90625 3.03125 -15.90625 C 3.363281 -15.90625 3.660156 -15.832031 3.921875 -15.6875 C 4.191406 -15.539062 4.398438 -15.34375 4.546875 -15.09375 C 4.691406 -14.851562 4.765625 -14.570312 4.765625 -14.25 C 4.765625 -13.925781 4.691406 -13.640625 4.546875 -13.390625 C 4.398438 -13.140625 4.191406 -12.941406 3.921875 -12.796875 C 3.660156 -12.660156 3.363281 -12.59375 3.03125 -12.59375 Z M 1.625 0 L 1.625 -11.25 L 4.4375 -11.25 L 4.4375 0 Z M 1.625 0 "/></g></g></g><g fill="#000000" fill-opacity="1"><g transform="translate(168.837409, 129.97023)"><g><path d="M 7.734375 0 L 4.375 0 L 0.21875 -11.25 L 3.171875 -11.25 L 5.96875 -3.234375 L 6.203125 -3.234375 L 9 -11.25 L 11.890625 -11.25 Z M 7.734375 0 "/></g></g></g><g fill="#000000" fill-opacity="1"><g transform="translate(180.925888, 129.97023)"><g><path d="M 11.109375 -4.984375 L 3.890625 -4.984375 C 3.960938 -4.003906 4.238281 -3.289062 4.71875 -2.84375 C 5.195312 -2.40625 5.847656 -2.1875 6.671875 -2.1875 C 7.316406 -2.1875 7.835938 -2.304688 8.234375 -2.546875 C 8.640625 -2.785156 8.960938 -3.148438 9.203125 -3.640625 L 9.421875 -3.640625 L 11.296875 -2.4375 C 10.929688 -1.644531 10.375 -1.003906 9.625 -0.515625 C 8.882812 -0.0234375 7.898438 0.21875 6.671875 0.21875 C 5.503906 0.21875 4.5 0 3.65625 -0.4375 C 2.8125 -0.882812 2.160156 -1.546875 1.703125 -2.421875 C 1.242188 -3.296875 1.015625 -4.359375 1.015625 -5.609375 C 1.015625 -6.890625 1.253906 -7.96875 1.734375 -8.84375 C 2.210938 -9.71875 2.863281 -10.367188 3.6875 -10.796875 C 4.507812 -11.234375 5.4375 -11.453125 6.46875 -11.453125 C 8.050781 -11.453125 9.265625 -11.03125 10.109375 -10.1875 C 10.960938 -9.34375 11.390625 -8.109375 11.390625 -6.484375 C 11.390625 -5.890625 11.367188 -5.429688 11.328125 -5.109375 Z M 8.6875 -6.8125 C 8.65625 -7.664062 8.453125 -8.285156 8.078125 -8.671875 C 7.710938 -9.066406 7.175781 -9.265625 6.46875 -9.265625 C 5.039062 -9.265625 4.195312 -8.445312 3.9375 -6.8125 Z M 8.6875 -6.8125 "/></g></g></g><g fill="#000000" fill-opacity="1"><g transform="translate(193.146888, 129.97023)"><g><path d="M 1.625 0 L 1.625 -11.25 L 4.359375 -11.25 L 4.359375 -9.578125 L 4.578125 -9.53125 C 4.847656 -10.15625 5.203125 -10.613281 5.640625 -10.90625 C 6.085938 -11.195312 6.625 -11.34375 7.25 -11.34375 C 7.894531 -11.34375 8.382812 -11.234375 8.71875 -11.015625 L 8.234375 -8.578125 L 8.015625 -8.546875 C 7.835938 -8.617188 7.660156 -8.671875 7.484375 -8.703125 C 7.316406 -8.734375 7.113281 -8.75 6.875 -8.75 C 6.082031 -8.75 5.476562 -8.472656 5.0625 -7.921875 C 4.644531 -7.367188 4.4375 -6.484375 4.4375 -5.265625 L 4.4375 0 Z M 1.625 0 "/></g></g></g><g fill="#000000" fill-opacity="1"><g transform="translate(201.963543, 129.97023)"><g><path d="M 5.265625 0.21875 C 4.492188 0.21875 3.785156 0.128906 3.140625 -0.046875 C 2.503906 -0.234375 1.957031 -0.484375 1.5 -0.796875 C 1.050781 -1.117188 0.722656 -1.484375 0.515625 -1.890625 L 2.078125 -3.578125 L 2.296875 -3.578125 C 2.671875 -3.078125 3.113281 -2.695312 3.625 -2.4375 C 4.132812 -2.1875 4.6875 -2.0625 5.28125 -2.0625 C 5.832031 -2.0625 6.242188 -2.160156 6.515625 -2.359375 C 6.796875 -2.554688 6.9375 -2.835938 6.9375 -3.203125 C 6.9375 -3.492188 6.835938 -3.734375 6.640625 -3.921875 C 6.441406 -4.117188 6.117188 -4.273438 5.671875 -4.390625 L 4.171875 -4.734375 C 3.054688 -5.003906 2.242188 -5.410156 1.734375 -5.953125 C 1.222656 -6.503906 0.96875 -7.203125 0.96875 -8.046875 C 0.96875 -8.742188 1.144531 -9.347656 1.5 -9.859375 C 1.851562 -10.378906 2.351562 -10.773438 3 -11.046875 C 3.65625 -11.316406 4.414062 -11.453125 5.28125 -11.453125 C 6.289062 -11.453125 7.128906 -11.304688 7.796875 -11.015625 C 8.460938 -10.722656 8.984375 -10.332031 9.359375 -9.84375 L 7.84375 -8.21875 L 7.640625 -8.21875 C 7.328125 -8.570312 6.972656 -8.828125 6.578125 -8.984375 C 6.191406 -9.148438 5.757812 -9.234375 5.28125 -9.234375 C 4.164062 -9.234375 3.609375 -8.882812 3.609375 -8.1875 C 3.609375 -7.894531 3.710938 -7.65625 3.921875 -7.46875 C 4.128906 -7.289062 4.492188 -7.144531 5.015625 -7.03125 L 6.40625 -6.734375 C 7.539062 -6.484375 8.367188 -6.085938 8.890625 -5.546875 C 9.421875 -5.003906 9.6875 -4.28125 9.6875 -3.375 C 9.6875 -2.65625 9.507812 -2.023438 9.15625 -1.484375 C 8.8125 -0.941406 8.304688 -0.519531 7.640625 -0.21875 C 6.972656 0.0703125 6.179688 0.21875 5.265625 0.21875 Z M 5.265625 0.21875 "/></g></g></g><g fill="#000000" fill-opacity="1"><g transform="translate(212.329481, 129.97023)"><g><path d="M 3.03125 -12.59375 C 2.519531 -12.59375 2.101562 -12.742188 1.78125 -13.046875 C 1.46875 -13.359375 1.3125 -13.757812 1.3125 -14.25 C 1.3125 -14.726562 1.46875 -15.125 1.78125 -15.4375 C 2.101562 -15.75 2.519531 -15.90625 3.03125 -15.90625 C 3.363281 -15.90625 3.660156 -15.832031 3.921875 -15.6875 C 4.191406 -15.539062 4.398438 -15.34375 4.546875 -15.09375 C 4.691406 -14.851562 4.765625 -14.570312 4.765625 -14.25 C 4.765625 -13.925781 4.691406 -13.640625 4.546875 -13.390625 C 4.398438 -13.140625 4.191406 -12.941406 3.921875 -12.796875 C 3.660156 -12.660156 3.363281 -12.59375 3.03125 -12.59375 Z M 1.625 0 L 1.625 -11.25 L 4.4375 -11.25 L 4.4375 0 Z M 1.625 0 "/></g></g></g><g fill="#000000" fill-opacity="1"><g transform="translate(218.383903, 129.97023)"><g><path d="M 7.75 -2.6875 L 8.484375 -0.59375 C 8.179688 -0.34375 7.796875 -0.144531 7.328125 0 C 6.867188 0.144531 6.347656 0.21875 5.765625 0.21875 C 4.546875 0.21875 3.617188 -0.113281 2.984375 -0.78125 C 2.359375 -1.445312 2.046875 -2.410156 2.046875 -3.671875 L 2.046875 -9.015625 L 0.34375 -9.015625 L 0.34375 -11.25 L 2.046875 -11.25 L 2.046875 -13.4375 L 4.875 -13.90625 L 4.875 -11.25 L 8.0625 -11.25 L 8.0625 -9.015625 L 4.875 -9.015625 L 4.875 -3.875 C 4.875 -3.3125 4.988281 -2.898438 5.21875 -2.640625 C 5.445312 -2.390625 5.785156 -2.265625 6.234375 -2.265625 C 6.734375 -2.265625 7.171875 -2.40625 7.546875 -2.6875 Z M 7.75 -2.6875 "/></g></g></g><g fill="#000000" fill-opacity="1"><g transform="translate(227.119017, 129.97023)"><g><path d="M 3.03125 -12.59375 C 2.519531 -12.59375 2.101562 -12.742188 1.78125 -13.046875 C 1.46875 -13.359375 1.3125 -13.757812 1.3125 -14.25 C 1.3125 -14.726562 1.46875 -15.125 1.78125 -15.4375 C 2.101562 -15.75 2.519531 -15.90625 3.03125 -15.90625 C 3.363281 -15.90625 3.660156 -15.832031 3.921875 -15.6875 C 4.191406 -15.539062 4.398438 -15.34375 4.546875 -15.09375 C 4.691406 -14.851562 4.765625 -14.570312 4.765625 -14.25 C 4.765625 -13.925781 4.691406 -13.640625 4.546875 -13.390625 C 4.398438 -13.140625 4.191406 -12.941406 3.921875 -12.796875 C 3.660156 -12.660156 3.363281 -12.59375 3.03125 -12.59375 Z M 1.625 0 L 1.625 -11.25 L 4.4375 -11.25 L 4.4375 0 Z M 1.625 0 "/></g></g></g><g fill="#000000" fill-opacity="1"><g transform="translate(233.173438, 129.97023)"><g><path d="M 11.109375 -4.984375 L 3.890625 -4.984375 C 3.960938 -4.003906 4.238281 -3.289062 4.71875 -2.84375 C 5.195312 -2.40625 5.847656 -2.1875 6.671875 -2.1875 C 7.316406 -2.1875 7.835938 -2.304688 8.234375 -2.546875 C 8.640625 -2.785156 8.960938 -3.148438 9.203125 -3.640625 L 9.421875 -3.640625 L 11.296875 -2.4375 C 10.929688 -1.644531 10.375 -1.003906 9.625 -0.515625 C 8.882812 -0.0234375 7.898438 0.21875 6.671875 0.21875 C 5.503906 0.21875 4.5 0 3.65625 -0.4375 C 2.8125 -0.882812 2.160156 -1.546875 1.703125 -2.421875 C 1.242188 -3.296875 1.015625 -4.359375 1.015625 -5.609375 C 1.015625 -6.890625 1.253906 -7.96875 1.734375 -8.84375 C 2.210938 -9.71875 2.863281 -10.367188 3.6875 -10.796875 C 4.507812 -11.234375 5.4375 -11.453125 6.46875 -11.453125 C 8.050781 -11.453125 9.265625 -11.03125 10.109375 -10.1875 C 10.960938 -9.34375 11.390625 -8.109375 11.390625 -6.484375 C 11.390625 -5.890625 11.367188 -5.429688 11.328125 -5.109375 Z M 8.6875 -6.8125 C 8.65625 -7.664062 8.453125 -8.285156 8.078125 -8.671875 C 7.710938 -9.066406 7.175781 -9.265625 6.46875 -9.265625 C 5.039062 -9.265625 4.195312 -8.445312 3.9375 -6.8125 Z M 8.6875 -6.8125 "/></g></g></g><g fill="#000000" fill-opacity="1"><g transform="translate(245.394426, 129.97023)"><g><path d="M 5.265625 0.21875 C 4.492188 0.21875 3.785156 0.128906 3.140625 -0.046875 C 2.503906 -0.234375 1.957031 -0.484375 1.5 -0.796875 C 1.050781 -1.117188 0.722656 -1.484375 0.515625 -1.890625 L 2.078125 -3.578125 L 2.296875 -3.578125 C 2.671875 -3.078125 3.113281 -2.695312 3.625 -2.4375 C 4.132812 -2.1875 4.6875 -2.0625 5.28125 -2.0625 C 5.832031 -2.0625 6.242188 -2.160156 6.515625 -2.359375 C 6.796875 -2.554688 6.9375 -2.835938 6.9375 -3.203125 C 6.9375 -3.492188 6.835938 -3.734375 6.640625 -3.921875 C 6.441406 -4.117188 6.117188 -4.273438 5.671875 -4.390625 L 4.171875 -4.734375 C 3.054688 -5.003906 2.242188 -5.410156 1.734375 -5.953125 C 1.222656 -6.503906 0.96875 -7.203125 0.96875 -8.046875 C 0.96875 -8.742188 1.144531 -9.347656 1.5 -9.859375 C 1.851562 -10.378906 2.351562 -10.773438 3 -11.046875 C 3.65625 -11.316406 4.414062 -11.453125 5.28125 -11.453125 C 6.289062 -11.453125 7.128906 -11.304688 7.796875 -11.015625 C 8.460938 -10.722656 8.984375 -10.332031 9.359375 -9.84375 L 7.84375 -8.21875 L 7.640625 -8.21875 C 7.328125 -8.570312 6.972656 -8.828125 6.578125 -8.984375 C 6.191406 -9.148438 5.757812 -9.234375 5.28125 -9.234375 C 4.164062 -9.234375 3.609375 -8.882812 3.609375 -8.1875 C 3.609375 -7.894531 3.710938 -7.65625 3.921875 -7.46875 C 4.128906 -7.289062 4.492188 -7.144531 5.015625 -7.03125 L 6.40625 -6.734375 C 7.539062 -6.484375 8.367188 -6.085938 8.890625 -5.546875 C 9.421875 -5.003906 9.6875 -4.28125 9.6875 -3.375 C 9.6875 -2.65625 9.507812 -2.023438 9.15625 -1.484375 C 8.8125 -0.941406 8.304688 -0.519531 7.640625 -0.21875 C 6.972656 0.0703125 6.179688 0.21875 5.265625 0.21875 Z M 5.265625 0.21875 "/></g></g></g><g fill="#000000" fill-opacity="1"><g transform="translate(255.760343, 129.97023)"><g/></g></g><g fill="#000000" fill-opacity="1"><g transform="translate(260.683396, 129.97023)"><g><path d="M 3.03125 -12.59375 C 2.519531 -12.59375 2.101562 -12.742188 1.78125 -13.046875 C 1.46875 -13.359375 1.3125 -13.757812 1.3125 -14.25 C 1.3125 -14.726562 1.46875 -15.125 1.78125 -15.4375 C 2.101562 -15.75 2.519531 -15.90625 3.03125 -15.90625 C 3.363281 -15.90625 3.660156 -15.832031 3.921875 -15.6875 C 4.191406 -15.539062 4.398438 -15.34375 4.546875 -15.09375 C 4.691406 -14.851562 4.765625 -14.570312 4.765625 -14.25 C 4.765625 -13.925781 4.691406 -13.640625 4.546875 -13.390625 C 4.398438 -13.140625 4.191406 -12.941406 3.921875 -12.796875 C 3.660156 -12.660156 3.363281 -12.59375 3.03125 -12.59375 Z M 1.625 0 L 1.625 -11.25 L 4.4375 -11.25 L 4.4375 0 Z M 1.625 0 "/></g></g></g><g fill="#000000" fill-opacity="1"><g transform="translate(266.737818, 129.97023)"><g><path d="M 1.625 0 L 1.625 -11.25 L 4.328125 -11.25 L 4.328125 -9.59375 L 4.546875 -9.546875 C 5.242188 -10.816406 6.378906 -11.453125 7.953125 -11.453125 C 9.242188 -11.453125 10.191406 -11.097656 10.796875 -10.390625 C 11.410156 -9.691406 11.71875 -8.664062 11.71875 -7.3125 L 11.71875 0 L 8.890625 0 L 8.890625 -6.96875 C 8.890625 -7.707031 8.738281 -8.242188 8.4375 -8.578125 C 8.144531 -8.910156 7.671875 -9.078125 7.015625 -9.078125 C 6.203125 -9.078125 5.566406 -8.8125 5.109375 -8.28125 C 4.660156 -7.757812 4.4375 -6.9375 4.4375 -5.8125 L 4.4375 0 Z M 1.625 0 "/></g></g></g><g fill="#000000" fill-opacity="1"><g transform="translate(279.906717, 129.97023)"><g/></g></g><g fill="#000000" fill-opacity="1"><g transform="translate(284.829771, 129.97023)"><g><path d="M 4.796875 0 L 1.9375 0 L 1.9375 -14.90625 L 5.3125 -14.90625 L 11.296875 -5.296875 L 11.5625 -5.34375 L 11.5625 -14.90625 L 14.390625 -14.90625 L 14.390625 0 L 11.375 0 L 5.046875 -10.25 L 4.796875 -10.21875 Z M 4.796875 0 "/></g></g></g><g fill="#000000" fill-opacity="1"><g transform="translate(301.168589, 129.97023)"><g><path d="M 3.03125 -12.59375 C 2.519531 -12.59375 2.101562 -12.742188 1.78125 -13.046875 C 1.46875 -13.359375 1.3125 -13.757812 1.3125 -14.25 C 1.3125 -14.726562 1.46875 -15.125 1.78125 -15.4375 C 2.101562 -15.75 2.519531 -15.90625 3.03125 -15.90625 C 3.363281 -15.90625 3.660156 -15.832031 3.921875 -15.6875 C 4.191406 -15.539062 4.398438 -15.34375 4.546875 -15.09375 C 4.691406 -14.851562 4.765625 -14.570312 4.765625 -14.25 C 4.765625 -13.925781 4.691406 -13.640625 4.546875 -13.390625 C 4.398438 -13.140625 4.191406 -12.941406 3.921875 -12.796875 C 3.660156 -12.660156 3.363281 -12.59375 3.03125 -12.59375 Z M 1.625 0 L 1.625 -11.25 L 4.4375 -11.25 L 4.4375 0 Z M 1.625 0 "/></g></g></g><g fill="#000000" fill-opacity="1"><g transform="translate(307.223031, 129.97023)"><g><path d="M 5.828125 4.765625 C 3.972656 4.765625 2.601562 4.492188 1.71875 3.953125 C 0.832031 3.410156 0.390625 2.65625 0.390625 1.6875 C 0.390625 1.09375 0.578125 0.601562 0.953125 0.21875 C 1.335938 -0.15625 1.882812 -0.40625 2.59375 -0.53125 L 2.59375 -0.75 C 2.207031 -0.976562 1.929688 -1.234375 1.765625 -1.515625 C 1.597656 -1.796875 1.515625 -2.125 1.515625 -2.5 C 1.515625 -3.40625 2.101562 -4.015625 3.28125 -4.328125 L 3.28125 -4.53125 C 2.675781 -4.882812 2.21875 -5.316406 1.90625 -5.828125 C 1.601562 -6.335938 1.453125 -6.957031 1.453125 -7.6875 C 1.453125 -8.4375 1.625 -9.09375 1.96875 -9.65625 C 2.3125 -10.226562 2.8125 -10.671875 3.46875 -10.984375 C 4.132812 -11.296875 4.929688 -11.453125 5.859375 -11.453125 C 6.796875 -11.453125 7.546875 -11.289062 8.109375 -10.96875 C 8.453125 -11.46875 8.648438 -12.046875 8.703125 -12.703125 L 8.921875 -12.84375 L 10.953125 -12.34375 C 10.890625 -11.800781 10.726562 -11.347656 10.46875 -10.984375 C 10.21875 -10.628906 9.832031 -10.304688 9.3125 -10.015625 L 9.3125 -9.796875 C 9.9375 -9.234375 10.25 -8.457031 10.25 -7.46875 C 10.25 -6.769531 10.078125 -6.144531 9.734375 -5.59375 C 9.390625 -5.039062 8.882812 -4.601562 8.21875 -4.28125 C 7.5625 -3.96875 6.773438 -3.8125 5.859375 -3.8125 L 5.4375 -3.828125 C 5.164062 -3.835938 4.972656 -3.84375 4.859375 -3.84375 C 4.597656 -3.84375 4.394531 -3.769531 4.25 -3.625 C 4.101562 -3.488281 4.03125 -3.3125 4.03125 -3.09375 C 4.03125 -2.851562 4.125 -2.664062 4.3125 -2.53125 C 4.507812 -2.40625 4.789062 -2.335938 5.15625 -2.328125 L 7.671875 -2.234375 C 10.160156 -2.160156 11.40625 -1.085938 11.40625 0.984375 C 11.40625 1.703125 11.21875 2.34375 10.84375 2.90625 C 10.476562 3.476562 9.878906 3.929688 9.046875 4.265625 C 8.222656 4.597656 7.148438 4.765625 5.828125 4.765625 Z M 5.859375 -5.796875 C 6.398438 -5.796875 6.820312 -5.953125 7.125 -6.265625 C 7.4375 -6.585938 7.59375 -7.046875 7.59375 -7.640625 C 7.59375 -8.222656 7.4375 -8.671875 7.125 -8.984375 C 6.820312 -9.304688 6.398438 -9.46875 5.859375 -9.46875 C 5.304688 -9.46875 4.878906 -9.304688 4.578125 -8.984375 C 4.285156 -8.671875 4.140625 -8.222656 4.140625 -7.640625 C 4.140625 -7.035156 4.285156 -6.578125 4.578125 -6.265625 C 4.878906 -5.953125 5.304688 -5.796875 5.859375 -5.796875 Z M 5.828125 2.71875 C 6.796875 2.71875 7.5 2.582031 7.9375 2.3125 C 8.375 2.039062 8.59375 1.6875 8.59375 1.25 C 8.59375 0.894531 8.476562 0.632812 8.25 0.46875 C 8.03125 0.300781 7.675781 0.210938 7.1875 0.203125 L 4.96875 0.109375 C 4.894531 0.109375 4.820312 0.101562 4.75 0.09375 C 4.6875 0.0820312 4.625 0.078125 4.5625 0.078125 C 4.09375 0.078125 3.734375 0.175781 3.484375 0.375 C 3.234375 0.582031 3.109375 0.867188 3.109375 1.234375 C 3.109375 1.710938 3.332031 2.078125 3.78125 2.328125 C 4.238281 2.585938 4.921875 2.71875 5.828125 2.71875 Z M 5.828125 2.71875 "/></g></g></g><g fill="#000000" fill-opacity="1"><g transform="translate(318.914003, 129.97023)"><g><path d="M 11.109375 -4.984375 L 3.890625 -4.984375 C 3.960938 -4.003906 4.238281 -3.289062 4.71875 -2.84375 C 5.195312 -2.40625 5.847656 -2.1875 6.671875 -2.1875 C 7.316406 -2.1875 7.835938 -2.304688 8.234375 -2.546875 C 8.640625 -2.785156 8.960938 -3.148438 9.203125 -3.640625 L 9.421875 -3.640625 L 11.296875 -2.4375 C 10.929688 -1.644531 10.375 -1.003906 9.625 -0.515625 C 8.882812 -0.0234375 7.898438 0.21875 6.671875 0.21875 C 5.503906 0.21875 4.5 0 3.65625 -0.4375 C 2.8125 -0.882812 2.160156 -1.546875 1.703125 -2.421875 C 1.242188 -3.296875 1.015625 -4.359375 1.015625 -5.609375 C 1.015625 -6.890625 1.253906 -7.96875 1.734375 -8.84375 C 2.210938 -9.71875 2.863281 -10.367188 3.6875 -10.796875 C 4.507812 -11.234375 5.4375 -11.453125 6.46875 -11.453125 C 8.050781 -11.453125 9.265625 -11.03125 10.109375 -10.1875 C 10.960938 -9.34375 11.390625 -8.109375 11.390625 -6.484375 C 11.390625 -5.890625 11.367188 -5.429688 11.328125 -5.109375 Z M 8.6875 -6.8125 C 8.65625 -7.664062 8.453125 -8.285156 8.078125 -8.671875 C 7.710938 -9.066406 7.175781 -9.265625 6.46875 -9.265625 C 5.039062 -9.265625 4.195312 -8.445312 3.9375 -6.8125 Z M 8.6875 -6.8125 "/></g></g></g><g fill="#000000" fill-opacity="1"><g transform="translate(331.134991, 129.97023)"><g><path d="M 1.625 0 L 1.625 -11.25 L 4.359375 -11.25 L 4.359375 -9.578125 L 4.578125 -9.53125 C 4.847656 -10.15625 5.203125 -10.613281 5.640625 -10.90625 C 6.085938 -11.195312 6.625 -11.34375 7.25 -11.34375 C 7.894531 -11.34375 8.382812 -11.234375 8.71875 -11.015625 L 8.234375 -8.578125 L 8.015625 -8.546875 C 7.835938 -8.617188 7.660156 -8.671875 7.484375 -8.703125 C 7.316406 -8.734375 7.113281 -8.75 6.875 -8.75 C 6.082031 -8.75 5.476562 -8.472656 5.0625 -7.921875 C 4.644531 -7.367188 4.4375 -6.484375 4.4375 -5.265625 L 4.4375 0 Z M 1.625 0 "/></g></g></g><g fill="#000000" fill-opacity="1"><g transform="translate(339.951625, 129.97023)"><g><path d="M 3.03125 -12.59375 C 2.519531 -12.59375 2.101562 -12.742188 1.78125 -13.046875 C 1.46875 -13.359375 1.3125 -13.757812 1.3125 -14.25 C 1.3125 -14.726562 1.46875 -15.125 1.78125 -15.4375 C 2.101562 -15.75 2.519531 -15.90625 3.03125 -15.90625 C 3.363281 -15.90625 3.660156 -15.832031 3.921875 -15.6875 C 4.191406 -15.539062 4.398438 -15.34375 4.546875 -15.09375 C 4.691406 -14.851562 4.765625 -14.570312 4.765625 -14.25 C 4.765625 -13.925781 4.691406 -13.640625 4.546875 -13.390625 C 4.398438 -13.140625 4.191406 -12.941406 3.921875 -12.796875 C 3.660156 -12.660156 3.363281 -12.59375 3.03125 -12.59375 Z M 1.625 0 L 1.625 -11.25 L 4.4375 -11.25 L 4.4375 0 Z M 1.625 0 "/></g></g></g><g fill="#000000" fill-opacity="1"><g transform="translate(346.006046, 129.97023)"><g><path d="M 4.390625 0.21875 C 3.660156 0.21875 3.03125 0.0859375 2.5 -0.171875 C 1.976562 -0.441406 1.570312 -0.832031 1.28125 -1.34375 C 1 -1.863281 0.859375 -2.484375 0.859375 -3.203125 C 0.859375 -3.867188 1 -4.425781 1.28125 -4.875 C 1.570312 -5.332031 2.015625 -5.703125 2.609375 -5.984375 C 3.203125 -6.273438 3.984375 -6.5 4.953125 -6.65625 C 5.628906 -6.757812 6.140625 -6.875 6.484375 -7 C 6.835938 -7.132812 7.070312 -7.285156 7.1875 -7.453125 C 7.3125 -7.617188 7.375 -7.828125 7.375 -8.078125 C 7.375 -8.429688 7.25 -8.703125 7 -8.890625 C 6.75 -9.085938 6.332031 -9.1875 5.75 -9.1875 C 5.125 -9.1875 4.53125 -9.046875 3.96875 -8.765625 C 3.40625 -8.484375 2.914062 -8.117188 2.5 -7.671875 L 2.296875 -7.671875 L 1.109375 -9.453125 C 1.679688 -10.078125 2.378906 -10.566406 3.203125 -10.921875 C 4.023438 -11.273438 4.921875 -11.453125 5.890625 -11.453125 C 7.378906 -11.453125 8.457031 -11.132812 9.125 -10.5 C 9.789062 -9.875 10.125 -8.976562 10.125 -7.8125 L 10.125 -2.9375 C 10.125 -2.4375 10.34375 -2.1875 10.78125 -2.1875 C 10.945312 -2.1875 11.113281 -2.210938 11.28125 -2.265625 L 11.421875 -2.234375 L 11.625 -0.265625 C 11.46875 -0.160156 11.25 -0.078125 10.96875 -0.015625 C 10.695312 0.046875 10.394531 0.078125 10.0625 0.078125 C 9.382812 0.078125 8.859375 -0.046875 8.484375 -0.296875 C 8.109375 -0.554688 7.835938 -0.960938 7.671875 -1.515625 L 7.46875 -1.546875 C 6.914062 -0.367188 5.890625 0.21875 4.390625 0.21875 Z M 5.28125 -1.890625 C 5.9375 -1.890625 6.457031 -2.109375 6.84375 -2.546875 C 7.238281 -2.984375 7.4375 -3.597656 7.4375 -4.390625 L 7.4375 -5.53125 L 7.234375 -5.5625 C 7.066406 -5.425781 6.84375 -5.3125 6.5625 -5.21875 C 6.289062 -5.132812 5.894531 -5.046875 5.375 -4.953125 C 4.769531 -4.847656 4.332031 -4.671875 4.0625 -4.421875 C 3.789062 -4.179688 3.65625 -3.832031 3.65625 -3.375 C 3.65625 -2.894531 3.796875 -2.523438 4.078125 -2.265625 C 4.367188 -2.015625 4.769531 -1.890625 5.28125 -1.890625 Z M 5.28125 -1.890625 "/></g></g></g></svg>